<?xml version="1.0" standalone="no"?><!DOCTYPE svg PUBLIC "-//W3C//DTD SVG 1.1//EN" "http://www.w3.org/Graphics/SVG/1.1/DTD/svg11.dtd"><svg t="1492758652839" class="icon" style="" viewBox="0 0 1146 1024" version="1.1" xmlns="http://www.w3.org/2000/svg" p-id="13447" xmlns:xlink="http://www.w3.org/1999/xlink" width="223.828125" height="200"><defs><style type="text/css"></style></defs><path d="M376.726 280.351s24.296-55.14 37.564-70.045 37.65-23.262 37.65-23.262-19.385-10.597-24.296-26.536c-4.911-15.939-7.582-42.044-7.582-42.044s-18.179 25.071-27.57 32.653c-9.477 7.582-34.29 10.856-34.29 10.856s18.696 23.951 20.936 38.942c2.24 15.077-2.412 79.436-2.412 79.436z" fill="#2c2c2c" p-id="13448"></path><path d="M931.483 323.429c-6.376-15.853-24.382-23.434-40.149-17.059-15.853 6.376-23.434 24.382-17.059 40.149 38.167 94.771 40.924 171.536-48.42 246.147l10.597-39.546c35.324-131.818-42.906-267.255-174.638-302.579-131.818-35.324-267.255 42.906-302.579 174.638l-22.831 85.208c-36.789-51.952-63.755-138.28-63.755-245.717 0-17.059-13.871-30.844-30.844-30.844s-31.102 13.785-31.102 30.844c0 138.452 42.475 256.4 106.402 317.312l-39.115 146.034c75.473 78.66 181.53 127.683 298.875 127.683 68.839 0 133.714-16.973 190.921-46.696l33.17-123.978c156.545-94.168 194.023-204.017 130.526-361.596zM500.79 398.385c-3.791 14.13-18.265 22.487-32.395 18.696s-22.487-18.265-18.696-32.395c3.791-14.13 18.265-22.487 32.308-18.782h0.086l68.235 18.265c4.652 1.292 7.496 6.031 6.203 10.769-1.292 4.739-6.203 7.496-10.769 6.289l-44.198-11.803c0.258 2.929 0 5.945-0.775 8.96zM537.837 562.942c-29.81-8.012-8.96-102.87-8.96-102.87l68.149 18.265s-29.379 92.618-59.189 84.605zM743.922 445.253c-1.292 4.739-6.203 7.496-10.769 6.289l-44.112-11.803c0.258 2.929 0 5.945-0.862 8.874-3.791 14.13-18.265 22.487-32.395 18.696-14.13-3.791-22.487-18.265-18.696-32.395 3.791-14.13 18.265-22.487 32.308-18.782h0.086l68.235 18.265c4.739 1.292 7.496 6.117 6.203 10.856z" fill="#2c2c2c" p-id="13449"></path></svg>