<?xml version="1.0" standalone="no"?><!DOCTYPE svg PUBLIC "-//W3C//DTD SVG 1.1//EN" "http://www.w3.org/Graphics/SVG/1.1/DTD/svg11.dtd"><svg t="1492758595002" class="icon" style="" viewBox="0 0 1099 1024" version="1.1" xmlns="http://www.w3.org/2000/svg" p-id="11544" xmlns:xlink="http://www.w3.org/1999/xlink" width="214.6484375" height="200"><defs><style type="text/css"></style></defs><path d="M614.256664 251.258172 602.023675 178.193868 448.505846 240.656249 416.910137 162.982949 817.287205 0.086496 848.882914 77.759795 699.195617 138.652894 715.283851 210.160273 857.47072 152.306887 1018.180063 547.308854 928.323201 583.859541 799.19721 266.493804 615.850659 341.090321 746.434724 662.064172 652.920322 700.110002 490.740549 301.512278Z" p-id="11545" fill="#2c2c2c"></path><path d="M88.942477 534.952299 260.970424 464.964777 339.644604 325.965899 434.283453 312.188341 373.143223 419.319666 459.157196 384.325904 489.282475 458.35402 205.069373 573.986654 312.707316 838.528122 331.439852 1024 244.635059 1014.077687 222.356192 862.845821Z" p-id="11546" fill="#2c2c2c"></path><path d="M865.885533 687.296256 766.736542 850.934102 678.523102 837.551954 792.845941 647.211594 675.174476 358.006444 768.701234 319.960613 886.360343 609.165764 1098.893075 670.738473 1039.766963 739.84868Z" p-id="11547" fill="#2c2c2c"></path><path d="M157.311291 285.102774 129.830315 247.118727 225.951949 207.886667 254.483233 245.561801 389.157317 190.77284 420.740669 268.421426 31.706918 426.696528 0.111209 349.060299Z" p-id="11548" fill="#2c2c2c"></path><path d="M431.67622 991.477549 356.820215 968.444932 556.687478 731.026101 632.939774 757.518553Z" p-id="11549" fill="#2c2c2c"></path><path d="M397.584487 832.745255 323.692293 801.087763 494.311593 620.657359 566.733357 648.719094Z" p-id="11550" fill="#2c2c2c"></path><path d="M280.370214 662.620217 446.98599 504.332758 517.195931 537.49775 350.555442 695.624573Z" p-id="11551" fill="#2c2c2c"></path><path d="M157.756127 404.182887 249.021636 424.571201 160.239794 485.254239 69.147277 464.779428Z" p-id="11552" fill="#2c2c2c"></path></svg>