<?xml version="1.0" standalone="no"?><!DOCTYPE svg PUBLIC "-//W3C//DTD SVG 1.1//EN" "http://www.w3.org/Graphics/SVG/1.1/DTD/svg11.dtd"><svg t="1492758729694" class="icon" style="" viewBox="0 0 1024 1024" version="1.1" xmlns="http://www.w3.org/2000/svg" p-id="16679" xmlns:xlink="http://www.w3.org/1999/xlink" width="200" height="200"><defs><style type="text/css"></style></defs><path d="M512 4.224C229.248 4.224 0 231.552 0 512c0 280.512 229.248 507.776 512 507.776 282.752 0 512-227.264 512-507.776C1024 231.552 794.752 4.224 512 4.224zM803.84 863.104c0 16.768-13.632 30.272-30.464 30.272L256 893.376c-16.832 0-30.464-13.504-30.464-30.272l0-5.376c0-4.864 1.344-9.28 3.328-13.248 9.344-97.984 68.416-181.632 152-225.472-91.52-47.744-153.92-142.848-153.92-252.48 0-157.632 128.832-285.376 287.808-285.376 158.848 0 287.744 127.744 287.744 285.376 0 157.568-128.896 285.376-287.744 285.376L513.664 651.904c-106.624 0.512-194.944 75.776-215.424 175.616l432.768 0c-9.28-45.12-32.512-85.248-64.96-115.648l50.304-43.136c46.528 45.888 77.504 107.264 84.032 175.744 1.984 4.032 3.392 8.384 3.392 13.248L803.776 863.104zM736 366.528c0-121.28-99.072-219.584-221.312-219.584-122.304 0-221.376 98.304-221.376 219.584s99.072 219.52 221.376 219.52C636.928 585.984 736 487.744 736 366.528zM511.232 287.232c-23.104 0-34.688 15.552-36.352 30.656l0 0.448L397.44 318.336c0-71.232 73.344-114.88 118.272-114.88 49.344 0 116.672 26.048 116.672 106.24 0 33.216-7.168 58.24-38.912 80.768C575.744 403.2 568.32 405.568 568.32 435.008L486.336 435.008c0-39.296 1.792-54.336 31.104-74.88 15.936-11.264 25.536-18.304 25.536-35.072C542.976 293.12 528.576 287.232 511.232 287.232zM487.424 462.464l82.24 0 0 57.664L487.424 520.128 487.424 462.464z" p-id="16680"></path></svg>