<?xml version="1.0" standalone="no"?><!DOCTYPE svg PUBLIC "-//W3C//DTD SVG 1.1//EN" "http://www.w3.org/Graphics/SVG/1.1/DTD/svg11.dtd"><svg t="1492758829627" class="icon" style="" viewBox="0 0 1024 1024" version="1.1" xmlns="http://www.w3.org/2000/svg" p-id="19271" xmlns:xlink="http://www.w3.org/1999/xlink" width="200" height="200"><defs><style type="text/css"></style></defs><path d="M523.377778 944.355556c-232.493511 0-420.977778-188.461511-420.977778-420.955022C102.4 290.884267 290.884267 102.4 523.377778 102.4s420.977778 188.484267 420.977778 421.000533C944.355556 755.894044 755.871289 944.355556 523.377778 944.355556zM465.555911 323.697778c-3.322311-12.128711-16.065422-19.364978-28.4672-16.088178l-135.304533 46.307556c-12.401778 3.254044-19.751822 15.724089-16.429511 27.875556 3.322311 12.151467 16.065422 19.364978 28.4672 16.110933l135.304533-46.330311C461.528178 348.319289 468.878222 335.826489 465.555911 323.697778zM744.948622 353.917156l-135.304533-46.307556c-12.401778-3.2768-25.144889 3.959467-28.4672 16.088178s4.050489 24.621511 16.429511 27.875556l135.304533 46.330311c12.401778 3.254044 25.144889-3.959467 28.4672-16.110933C764.700444 369.641244 757.3504 357.148444 744.948622 353.917156zM785.066667 512.022756l0-45.511111-12.424533 0L699.505778 466.511644 347.249778 466.511644l-73.136356 0L261.688889 466.511644l0 45.511111 2.685156 0c-1.479111 11.218489-2.685156 22.528-2.685156 34.133333 0 144.543289 117.168356 261.688889 261.688889 261.688889s261.688889-117.1456 261.688889-261.688889c0-11.605333-1.206044-22.914844-2.685156-34.133333L785.066667 512.022756zM523.377778 739.578311c-106.814578 0-193.422222-86.607644-193.422222-193.422222 0-11.696356 1.319822-23.028622 3.322311-34.133333l380.199822 0c2.025244 11.104711 3.322311 22.436978 3.322311 34.133333C716.8 652.970667 630.192356 739.578311 523.377778 739.578311z" p-id="19272"></path></svg>