<?xml version="1.0" standalone="no"?><!DOCTYPE svg PUBLIC "-//W3C//DTD SVG 1.1//EN" "http://www.w3.org/Graphics/SVG/1.1/DTD/svg11.dtd"><svg t="1492761086244" class="icon" style="" viewBox="0 0 1024 1024" version="1.1" xmlns="http://www.w3.org/2000/svg" p-id="34424" xmlns:xlink="http://www.w3.org/1999/xlink" width="200" height="200"><defs><style type="text/css"></style></defs><path d="M877.144816 219.191164l-237.836827-40.545438c0 0 10.641361 39.47199 10.689457 81.780585l0.332575 220.34443c0 0-3.2623 51.076282-96.04138 53.175083-92.780103 2.098801-99.277074-57.786101-96.028077-59.565631l-0.343831-89.309048c0 0 1.245364-12.475126 14.016225-13.297864s14.018272 13.993712 14.018272 13.993712l0.809435 88.722694c0 0 5.445012 33.929764 68.89102 33.756825s65.98483-31.44313 65.98483-31.44313l0.690732-245.697865c0 0 3.560082-81.70793-89.544409-103.619986 0 0-11.154038-6.116301-43.943838-6.104021l-161.719218-0.100284c0 0-141.373845 4.250814-163.126264 173.35114 0 0-3.903913 30.634718-3.949962 52.453652s-0.319272 381.394407-0.319272 381.394407-1.524726 25.182542-30.312376 31.66621c0 0-31.92306 4.236488-39.565111-31.82073l-0.699941-104.291275c0 0-3.160993-39.498596-44.278459-42.936905 0 0-38.113039-0.027629-44.731784 42.951231l1.414209 111.124913c0 0 7.623631 67.566862 74.837452 97.607038s124.71749-8.079002 133.084041-14.94334 41.990347-31.527041 49.117674-79.912028c0 0 1.862417-2.677992 1.862417-43.61024l0.514723-66.722634c0 0 6.67605-34.005488 43.234687-35.148521s43.237757 35.170011 43.237757 35.170011l0 248.167103c0 0 7.836479 32.877805 37.757952 26.330692l172.021865-14.973016c0 0 25.167193-5.300726 25.167193-29.819143s0-173.574221 0-173.574221 5.074575-15.653515 20.211321-15.653515 158.988014 0.217964 158.988014 0.217964 11.909238 1.456165 17.257036 15.435551-0.552585 0-0.552585 0l0.774643 164.531264c0 0 2.316765 28.79072 38.514175 27.806299l143.097092 19.624966 32.399921 4.443196c0 0 29.726022-3.411703 30.312376-30.263258L1023.388575 375.769292C1023.391644 375.769292 1017.849418 249.578242 877.144816 219.191164zM330.603115 267.638573l-12.111852 13.907755c-14.08888-12.317537-30.033014-2.37714-30.033014-2.37714-16.833387 10.546194-8.113795 29.649274-8.113795 29.649274l-13.901615 4.378727c-7.80271 1.973958-13.456477-3.37998-13.456477-3.37998-5.91471-22.25077 8.946766-42.178635 8.946766-42.178635 24.179702-26.225291 57.985646-15.611559 57.985646-15.611559C336.592526 257.261225 330.603115 267.638573 330.603115 267.638573z" p-id="34425"></path></svg>