<?xml version="1.0" standalone="no"?><!DOCTYPE svg PUBLIC "-//W3C//DTD SVG 1.1//EN" "http://www.w3.org/Graphics/SVG/1.1/DTD/svg11.dtd"><svg t="1492760453886" class="icon" style="" viewBox="0 0 1024 1024" version="1.1" xmlns="http://www.w3.org/2000/svg" p-id="21220" xmlns:xlink="http://www.w3.org/1999/xlink" width="200" height="200"><defs><style type="text/css"></style></defs><path d="M942.4 497.792c0-237.312-193.024-430.4-430.4-430.4-237.312 0-430.4 193.088-430.4 430.4 0 114.688 46.912 225.408 128.512 305.984-8.96 15.104-14.464 32.576-14.464 51.328 0 56.064 45.504 101.504 101.504 101.504 36.48 0 68.288-19.52 86.144-48.448 41.728 12.992 84.928 20.032 128.64 20.032 46.4 0 91.84-7.616 135.488-22.208 17.6 30.144 49.92 50.624 87.36 50.624 55.936 0 101.504-45.44 101.504-101.504 0-20.864-6.4-40.384-17.344-56.512C898.432 717.568 942.4 611.52 942.4 497.792zM297.216 929.664c-41.152 0-74.56-33.408-74.56-74.624 0-17.728 6.528-33.856 16.896-46.656 2.688-3.328 5.568-6.272 8.576-9.024 1.28-1.216 2.624-2.24 3.968-3.328 2.816-2.112 5.76-4.032 8.832-5.76 1.728-0.96 3.392-1.92 5.12-2.752 3.264-1.472 6.592-2.624 10.048-3.648 1.664-0.512 3.328-1.216 5.056-1.6 5.248-1.152 10.624-1.792 16.128-1.792 41.088 0 74.56 33.408 74.56 74.496 0 5.376-0.576 10.496-1.664 15.68-0.256 1.216-0.768 2.112-1.024 3.328-1.088 3.904-2.304 7.744-3.968 11.584C353.344 911.488 327.424 929.664 297.216 929.664zM636.8 881.472c-77.888 25.344-163.392 26.24-242.304 2.176 0.576-1.6 0.768-3.456 1.152-5.12C396.096 876.8 396.544 875.072 396.8 873.344c1.152-6.016 1.856-12.032 1.856-18.176 0-56-45.504-101.44-101.44-101.44-6.912 0-13.632 0.64-20.224 1.984-1.664 0.384-3.264 1.024-4.928 1.408-4.8 1.344-9.536 2.496-14.016 4.352C256 762.368 254.208 763.584 252.16 764.544c-3.84 1.92-7.68 3.776-11.264 6.144-3.2 2.112-6.08 4.8-9.024 7.296-1.856 1.536-3.904 2.88-5.632 4.544-76.032-76.16-117.76-176.768-117.76-284.8 0-222.464 180.992-403.392 403.456-403.392 222.528 0 403.456 180.992 403.456 403.392 0 105.984-40.384 205.184-113.984 280.896-1.6-1.408-3.456-2.432-5.184-3.84-2.432-1.792-4.736-3.648-7.296-5.184-2.816-1.856-5.888-3.392-8.96-4.928-2.624-1.344-5.056-2.688-7.68-3.776-3.648-1.408-7.296-2.368-11.008-3.392-2.368-0.704-4.736-1.536-7.168-1.984-6.336-1.28-12.736-1.92-19.264-1.92-56.064 0-101.504 45.44-101.504 101.44 0 6.208 0.64 12.224 1.792 18.24 0.256 1.344 0.576 2.816 0.768 4.224C636.288 878.912 636.416 880.256 636.8 881.472zM734.848 929.664c-30.848 0-57.344-18.752-68.736-45.504-1.152-2.816-1.792-5.696-2.624-8.576-1.856-6.592-3.264-13.312-3.264-20.48 0-41.088 33.472-74.56 74.624-74.56 5.248 0 10.496 0.64 15.552 1.664 1.216 0.32 2.24 0.832 3.456 1.152 3.776 0.96 7.488 2.112 11.2 3.712 1.344 0.704 2.624 1.536 3.968 2.176 3.2 1.664 6.272 3.456 9.216 5.504 1.344 0.96 2.624 2.112 3.904 3.2 2.688 2.24 5.248 4.544 7.616 7.104 12.096 13.248 19.712 30.72 19.712 50.048C809.344 896.256 775.936 929.664 734.848 929.664z" p-id="21221" fill="#2c2c2c"></path><path d="M692.736 617.216c-4.736-5.824-13.12-6.72-19.008-2.112-0.768 0.576-73.92 57.92-172.16 57.92-96.384 0-149.312-55.936-149.824-56.576C346.688 611.008 338.176 610.56 332.736 615.68 327.232 620.672 326.848 629.12 331.904 634.624c2.432 2.752 60.928 65.344 169.664 65.344 107.584 0 185.664-61.248 188.992-63.872C696.384 631.424 697.344 622.976 692.736 617.216z" p-id="21222" fill="#2c2c2c"></path><path d="M422.656 319.872C409.024 306.304 392.704 299.52 373.632 299.52c-10.688 0-20.608 2.24-29.824 6.72C334.528 310.784 326.656 314.112 320 321.792 313.6 314.048 305.792 310.784 296.512 306.304 287.104 301.76 277.12 299.52 266.432 299.52c-19.008 0-35.392 6.784-48.96 20.288C203.968 333.376 197.184 349.632 197.184 368.704c0 10.688 2.24 20.672 6.72 30.016 4.48 9.28 10.688 17.28 18.496 23.872l56.384 47.104 41.28 42.816 42.432-43.392 60.992-51.776C436.352 403.84 442.816 387.648 442.816 368.704 442.816 349.696 436.032 333.376 422.656 319.872z" p-id="21223" fill="#2c2c2c"></path><path d="M806.592 319.872c-13.568-13.568-29.888-20.288-48.96-20.288-10.688 0-20.608 2.24-29.824 6.72C718.464 310.784 710.656 314.112 704 321.792c-6.4-7.808-14.208-11.008-23.488-15.552C671.104 301.76 661.12 299.52 650.496 299.52c-19.072 0-35.456 6.784-49.024 20.288C587.968 333.376 581.184 349.632 581.184 368.704c0 10.688 2.24 20.672 6.72 30.016C592.512 408 598.656 416 606.4 422.592l56.448 47.104 41.28 42.816 42.496-43.392 60.864-51.776c12.928-13.568 19.392-29.76 19.392-48.704C826.816 349.696 820.032 333.376 806.592 319.872z" p-id="21224" fill="#2c2c2c"></path></svg>