<?xml version="1.0" standalone="no"?><!DOCTYPE svg PUBLIC "-//W3C//DTD SVG 1.1//EN" "http://www.w3.org/Graphics/SVG/1.1/DTD/svg11.dtd"><svg t="1492758872591" class="icon" style="" viewBox="0 0 1024 1024" version="1.1" xmlns="http://www.w3.org/2000/svg" p-id="20419" xmlns:xlink="http://www.w3.org/1999/xlink" width="200" height="200"><defs><style type="text/css"></style></defs><path d="M739.70176 78.97088c-5.0176 2.26304 2.84672 1.5616 2.6368 5.26336 12.43648 6.16448 22.40512 14.848 34.22208 23.69024 2.09408 1.56672 3.46112 3.8912 5.26336 5.26336 3.67616 2.80064 9.63072 4.80256 13.1584 7.89504 7.85408 6.8864 13.12256 15.75936 21.05856 23.69024 7.33696 7.33184 17.53088 13.61408 23.69536 21.05856 3.4048 4.11648 4.72576 10.99264 7.89504 15.7952 3.2768 4.95616 11.60192 5.54496 7.89504 13.16352 15.69792 5.8112 33.23392 8.96512 50.01728 15.79008 0.82944 0.33792 0.4864 2.0992 2.6368 2.63168 1.55136 0.38912 3.80416-0.62464 5.26336 0 1.67936 0.72192 3.88096 4.59776 5.26336 5.26336 3.66592 1.76128 6.81472 0.73216 10.53184 2.63168 1.8176 0.93184 3.70176 4.31616 5.26336 5.26336 2.82112 1.70496 5.48864 0.7936 7.89504 2.63168 1.36192 1.03936 3.95264 3.9424 5.26336 5.26336 6.61504 6.68672 15.09376 14.21312 13.16352 28.95872-9.40032 11.65824-24.2176 17.89952-44.75392 18.42688-1.85856 8.99584 4.84352 16.08192 7.90016 23.69024 6.68672 16.65024 12.94848 34.09408 18.42688 55.28064 0.16896 0.64512 2.50368 0.24064 2.6368 2.63168 0.53248 10.13248 5.62176 19.16416 7.89504 31.58528 1.60256 8.7552 1.12128 16.78848 2.6368 26.32704 0.03072 0.19456 2.52416 0.59392 2.63168 2.63168 0.67584 12.8 4.32128 30.77632 5.26336 47.38048 2.02752 35.65568 0.22016 81.6384-5.26336 113.19296-0.42496 2.45248 0.72192 5.52448 0 7.90016-3.26144 10.7776-7.00416 35.91168-10.53184 50.01728-7.12192 28.50304-17.7152 56.17152-28.9536 81.60256-5.70368 12.90752-11.88864 27.4688-18.42688 39.49056-0.74752 1.37728-2.47808-0.33792-2.6368 2.63168-0.19968 3.79392-5.01248 5.68832-5.26336 10.53184-0.18432 3.49696-5.06368 4.1216-5.26336 7.89504-0.18432 3.50208-5.06368 4.1216-5.26336 7.90016-0.04096 0.76288-2.02752 4.39296-2.63168 5.26336-1.88416 2.71872-5.80608 4.92032-7.90016 7.89504-0.6656 0.95232 0.86528 4.56192 0 5.26336-1.01888 0.83456-4.50048 1.62304-5.26336 2.6368-3.75296 4.96128-6.8096 11.20256-10.53184 15.7952-2.24768 2.77504-5.32992 4.66432-7.89504 7.89504-2.0736 2.6112-3.27168 5.1456-5.26336 7.89504-0.65536 0.90624-4.89984 1.82272-5.26336 2.6368-0.63488 1.40288 0.75776 3.93728 0 5.26336-4.4544 7.79264-15.50336 16.13824-23.69024 23.69024-2.88256 2.6624-5.12 8.33536-7.90016 10.53184-0.9216 0.73216-4.54144-0.88064-5.26336 0-2.8928 3.54304-7.94112 11.66848-13.1584 15.7952-0.9216 0.73216-4.54656-0.88064-5.26336 0-4.40832 5.39136-10.112 10.41408-18.42688 15.7952-1.4592 0.9472 0.4096 2.46784-2.6368 2.63168-2.24256 0.11776-5.83168 3.9936-7.89504 5.26336-1.65888 1.01888-3.56352 1.4336-5.26336 2.6368-2.57024 1.81248-5.02784 6.02112-7.90016 7.89504-2.54976 1.66912-5.46816 1.28512-7.89504 2.6368-1.38752 0.768 0.34816 2.47296-2.6368 2.63168 0.0256 0-7.18848 2.10432-7.89504 2.6368-1.09056 0.81408-1.60256 4.67456-2.63168 5.26336-2.8416 1.61792-5.2992 1.29536-7.90016 2.63168-1.92 0.98304-23.48544 9.216-23.69024 13.1584-0.3072 5.82144-7.35232 1.3824-10.53184 5.26336-2.86208 3.49696-14.30016 6.95296-23.69024 10.53184-22.1184 8.41728-50.89792 18.10944-78.976 23.69536-2.4576 0.4864-5.504-0.72704-7.89504 0-17.19296 5.1968-58.2912 7.99744-84.23936 7.89504-21.10976-0.08192-47.69792-2.26304-68.44416-5.26336-2.432-0.34816-5.5552 0.71168-7.89504 0-1.39264-0.41984-2.73408-2.65216-2.63168-2.63168-8.91904-1.51552-18.6624-0.8704-26.32192-2.6368-0.53248-0.11776-0.3328-2.5088-2.63168-2.63168-0.99328-0.05632-7.3472 0.67072-7.89504 0-2.4832-3.04128-7.90528-0.01024-10.53184-2.6368-0.21504-0.21504 0.24576-2.56512 0-2.63168-8.1152-2.23232-16.41472-2.87232-23.69024-5.26336-10.5216-3.46624-20.59776-8.92416-31.58528-13.16352-3.82464-1.46944-6.7584-0.77824-10.53184-2.63168-1.30048-0.64 0.27648-2.47808-2.63168-2.6368 0.04096 0.00512-7.2192-2.11456-7.89504-2.63168-0.86016-0.65536 0.8448-4.57728 0-5.26336-0.52736-0.43008-2.0992 0.42496-2.63168 0-3.09248-2.4576-6.27712-0.6144-10.52672-2.63168-1.28512-0.60928-1.56672-4.72576-2.63168-5.26336-3.56352-1.81248-6.94272-0.6656-10.53184-2.6368-1.3824-0.75776 0.34304-2.47296-2.63168-2.63168-0.37376-0.02048-6.69184-1.93536-7.89504-2.6368-1.08032-0.62464-1.7152-4.84864-2.63168-5.26336-3.2-1.44384-7.71584-0.52224-10.53184-2.63168-1.28512-0.96768-1.41312-4.4032-2.63168-5.26336-0.9472-0.67072-4.5568 0.86016-5.26336 0-0.74752-0.9216-1.72032-4.63872-2.63168-5.26336-0.95232-0.65536-4.56192 0.85504-5.26336 0-1.77664-2.17088-3.06176-7.64416-7.89504-7.90016-3.06688-0.15872-9.09312-7.296-13.16352-10.53184-2.5856-2.048-5.24288-3.21024-7.89504-5.26336-18.67776-14.44352-37.26336-29.91616-52.64896-50.01728-1.14176-1.4848-2.46784 0.44032-2.63168-2.63168-0.03072-0.60928-2.08896-4.58752-2.63168-5.26336-8.40192-10.45504-18.20672-20.90496-26.32704-31.5904-12.2368-16.1024-22.71232-33.5104-34.22208-52.64384-1.0496-1.74592-1.45408-3.41504-2.63168-5.26336-1.83296-2.88256-3.3792-4.9408-5.26336-7.90016-0.56832-0.89088-2.52928-2.41152-2.63168-2.63168-2.0224-4.224-0.86016-7.92576-2.63168-13.16352-1.88416-5.57056-7.41376-13.48096-10.53184-21.05344-1.536-3.7376-2.78016-10.56256-5.26336-15.7952-0.60416-1.27488-2.47808 0.25088-2.63168-2.6368-0.18944-3.61984-3.38432-8.10496-5.26336-13.1584-1.6896-4.54656-0.9472-8.2944-2.63168-13.16352-0.33792-0.96256-2.49344 0.01024-2.63168-2.63168-0.03584-0.70144 0.256-1.99168 0-2.6368-4.352-10.86976-10.05056-36.11136-13.16352-52.64384-0.47616-2.52928 0.54784-5.38112 0-7.89504-0.76288-3.5072-1.67424-5.1712-2.63168-13.16352-0.09728-0.78336 0.5376-4.81792 0-5.26336-3.00032-2.45248-1.50528-7.08096-2.63168-15.7952-3.2256-24.92416-4.95616-73.26208-2.63168-107.9296 1.408-21.00736 6.46144-42.71104 10.53184-63.17568 0.384-1.93536-1.30048-9.22624 0-10.52672 0.2048-0.2048 2.57536 0.2304 2.63168 0 0.49152-2.00704-1.36704-9.1648 0-10.53184 1.00352-1.00864 3.87584-5.632 5.26336-10.53184 2.17088-7.66464 2.70848-16.01536 5.26336-23.69024 0.3072-0.9216 2.49344-0.0256 2.63168-2.63168 0.03584-0.69632-0.256-1.98656 0-2.63168 5.504-13.75744 14.29504-35.05664 21.05856-52.64896 2.37568-2.92864 2.05824-4.83328 0-7.89504-1.26976-1.88928-7.05024-3.3536-7.89504-5.26336-2.78016-6.29248-5.07904-26.40384 0-34.22208 1.52576-2.34496 6.13376-3.1232 7.89504-5.26336 1.66912-2.0224 2.30912-8.46336 5.26336-10.53184 3.01568-2.10432 6.84032-1.37728 10.53184-2.63168-2.31424-8.45824 8.6784-3.6096 7.89504-10.52672 7.94624-3.46112 21.00736-1.80736 28.9536-5.26336 5.92896-1.09568-0.39424-14.43328 7.89504-13.16352 0.64-8.00256 8.8576-10.112 13.16352-15.7952 0.70656-0.93184-0.87552-4.54656 0-5.26336 2.17088-1.77664 7.64416-3.06176 7.89504-7.89504 0.1792-3.36384 18.87232-21.93408 23.69024-26.32192 1.87904-1.71008 5.94944-1.14176 7.89504-2.63168 3.6352-2.78016 8.08448-11.4944 13.16352-15.7952 3.5072-2.9696 8.81664-4.74112 13.16352-7.89504 1.792-1.30048 3.584-4.03456 5.26336-5.26336 1.61792-1.18272 3.56864-1.37728 5.26336-2.63168 1.60768-1.19296 3.72736-4.30592 5.26336-5.26336 4.67968-2.90816 12.55424-5.27872 15.79008-13.1584-19.3024-4.7104-37.33504-6.79936-55.28064-2.63168-8.36096 1.94048-16.04096 6.64064-23.69024 10.52672-7.40864 3.76832-16.47616 7.69536-21.05856 13.16352-6.08256-0.7424 2.40128-6.13888 2.63168-10.53184 0.04096-0.80384 2.01728-4.34176 2.63168-5.26336 0.65024-0.9728 4.87936-1.78176 5.26336-2.63168 0.55808-1.23904-0.83456-4.22912 0-5.26336 3.21536-4.00384 8.84736-7.37792 13.16352-13.16352 1.8944-2.53952 3.13856-5.51424 5.26336-7.89504 0.51712-0.57856 2.10432-5.02784 2.63168-5.26336 1.23904-0.55808 4.22912 0.83456 5.26336 0 2.06848-1.65888 3.11808-6.53312 5.26336-7.89504 3.46624-2.2016 11.04384-3.48672 15.7952-5.26336 0.68608-0.256 0.59904-2.1248 2.63168-2.63168 8.8576-2.21184 16.7936-3.04128 28.9536 0 2.32448 0.57856 4.51584 1.78688 7.89504 2.63168 2.688 0.67072 1.28 2.00704 2.63168 2.63168 9.46688 4.38784 23.26528 12.18048 26.32704 26.32704 3.01568-1.75104 4.72576-3.55328 7.89504-5.26336 1.82272-0.98304 5.7856-1.18272 7.89504-2.63168 0.85504-0.5888-0.76288-4.5056 0-5.26336 0.89088-0.896 4.21376 0.74752 5.26336 0 1.4592-1.04448 3.89632-4.54656 5.26336-5.26336 4.05504-2.11968 10.8032-2.08384 15.7952-5.26336 2.9184-1.85856 12.51328-4.12672 18.42688-7.89504 4.15744-2.64704 14.95552-5.01248 23.69024-7.89504 0.91648-0.30208 0.03584-2.49856 2.63168-2.63168 6.08256-0.32256 7.84896-0.50688 13.16352-2.63168 3.24096-1.29536 15.1808-5.95968 23.69024-7.89504 1.98144-0.45056 9.18528 1.34144 10.53184 0 0.19456-0.19456-0.22016-2.5856 0-2.63168 2.4576-0.54784 5.48864 0.72704 7.89504 0 3.09248-0.93696 16.38912-3.9936 26.32192-5.26336 67.72224-8.68352 150.2208-0.75264 205.32736 15.7952 14.64832 4.39808 29.11744 10.42944 42.11712 15.79008 0.9472 0.38912 4.66944-0.73216 5.26336 0 0.256 0.31232-0.32256 2.47808 0 2.63168 0.96256 0.45056 4.63872-0.768 5.26336 0 0.25088 0.30208-0.32256 2.4832 0 2.63168 3.6864 1.69472 6.85056 0.71168 10.53184 2.63168 1.35168 0.70144-0.31744 2.47808 2.6368 2.63168 3.79392 0.19968 5.68832 5.01248 10.53184 5.26336 2.55488 0.13312 2.04288 3.1744 2.63168 5.26336 3.88096-1.84832 4.66944-7.56736 7.90016-10.53184 1.94048-1.78176 6.00576-0.8704 7.89504-2.63168 2.82112-2.62656 4.33152-5.56032 10.53184-7.89504 0.93184-0.34816 4.6848 0.71168 5.26336 0 2.78528-3.4048 5.376-1.27488 10.53184-2.63168 0.6656-0.17408 0.22528-2.50368 2.63168-2.63168 16.58368-0.8704 36.77696 10.21952 50.01728 23.69024 2.06336 2.0992 0.75776 5.39648 2.6368 7.89504 2.00192 2.66752 9.77408 6.23104 13.1584 10.53184 5.4016 6.85056 8.20224 16.06656 13.16352 21.05856-0.4864 2.24256 1.024 2.4832 2.63168 2.63168-2.85696 3.90144-7.66976-1.04448-10.53184-2.63168-1.71008-0.95232-3.7632-4.4288-5.26336-5.26336-0.96256-0.53248-4.59776 0.80896-5.26336 0-1.8944-2.31936-11.85792-7.90016-18.42688-10.52672-0.93696-0.37376-4.66944 0.72704-5.26336 0-0.17408-0.21504 0.21504-2.57536 0-2.63168-5.67296-1.44896-15.15008-2.4576-21.05856-2.63168C753.4848 76.12416 747.26912 76.32896 739.70176 78.97088zM723.90656 252.70784c24.08448-1.72544 56.56576-1.03936 76.3392 0 2.0736 0.10752 2.39616 2.59072 2.6368 2.63168 2.6368 0.44032 1.9968-2.50368 2.63168-2.63168 2.44224-0.4864 2.30912 2.60096 2.6368 2.63168 6.0416 0.60928 12.43136-0.91648 18.42688 0 5.27872 0.80896 16.28672 4.72576 18.42688 5.26336 1.65376 0.41472 3.59936-0.37376 5.26336 0 13.3376 2.9952 27.53024 7.72096 36.85376 10.52672 2.41664 0.72704 5.48352-0.72704 7.90016 0 0.98816 0.30208 3.8912 4.80768 5.26336 5.26336 21.77536 7.23456 55.66464-1.88416 57.91232-18.42688 1.26464-9.32864-3.4816-7.53664-5.26336-10.53184-2.32448-3.90144-2.07872-7.43424-5.26336-10.53184-3.97824-3.87584-9.38496-6.5024-10.53184-7.89504-0.62464-0.768-4.31104 0.45056-5.26336 0-0.32256-0.1536 0.256-2.32448 0-2.63168-0.65536-0.80384-4.3008 0.52736-5.26336 0-0.3584-0.19456 0.2816-2.29376 0-2.63168-0.62464-0.768-4.30592 0.45056-5.26336 0-0.32256-0.1536 0.256-2.32448 0-2.63168-0.63488-0.77824-4.30592 0.47104-5.26336 0-0.3328-0.16384 0.26112-2.31424 0-2.63168-0.62464-0.768-4.30592 0.45056-5.26336 0-0.32256-0.1536 0.256-2.32448 0-2.63168-0.6144-0.74752-4.31616 0.42496-5.26336 0-0.31232-0.13824 0.24576-2.33472 0-2.63168-0.31232-0.37888-10.43968-2.59584-10.52672-2.63168-8.71424-3.48672-22.95808-6.41024-26.32704-10.52672-0.54784-0.67072-6.90688 0.0512-7.90016 0-2.31936-0.12288-2.0736-2.49856-2.63168-2.63168-3.18976-0.75776-7.2448 0.17408-10.53184 0-2.09408-0.10752-2.36544-2.5856-2.6368-2.63168-3.34336-0.58368-7.12704 0.1792-10.52672 0-2.0992-0.10752-2.36544-2.5856-2.6368-2.63168-3.34336-0.58368-7.13216 0.1792-10.53184 0-1.90976-0.1024-2.60096-2.63168-2.63168-2.63168-4.13696-0.52736-2.46272 3.42528-5.26336 0-0.4352-0.53248-4.49024 0.08192-5.26336 0-15.0272-1.60256-32.128-3.75808-44.7488-2.63168-12.24192 1.09056-23.71584 0.8448-36.85376 2.63168-5.98528 0.81408-12.64128 4.1216-18.42688 5.26336-11.29472 2.23232-22.00064 3.5328-26.32704 5.26336-5.31968 2.1248-7.08608 2.31424-13.16352 2.63168-2.5344 0.13312-1.79712 2.37568-2.63168 2.63168-7.7056 2.36544-13.85472 2.53952-21.05856 5.26336-7.48544 2.93376 4.52096 4.93056 5.26336 5.26336 0.5632 0.256 2.06848 4.66944 2.6368 5.26336 4.61824 4.89984 8.96512 6.7328 10.52672 15.7952 1.5104 8.75008-0.05632 16.3584-2.63168 26.32704C683.68384 260.4544 701.2608 254.33088 723.90656 252.70784zM42.11712 263.23968c0.3584 1.21856 2.47808-0.34304 2.63168 2.63168 0.36352 6.92736 14.68928 13.01504 18.42688 13.1584 6.03648 0.23552 11.3664-4.54656 13.16352-5.26336 1.96096-0.78336 5.25312 0.08704 5.26336-2.63168-11.3152-3.712-20.52608-10.35776-23.69024-23.69024-1.54624-6.51264 3.4304-14.59712-2.63168-21.05856C46.43328 235.81184 37.93408 248.8832 42.11712 263.23968zM394.85952 229.0176c-9.33376-6.90688-21.66272-11.59168-31.58528-15.7952-10.77248-4.5568-22.60992-9.58976-34.22208-13.1584-21.49888-6.61504-42.56256-10.45504-65.81248-13.16352-31.47776-3.67104-77.85984-1.60768-110.56128 5.26336-3.6096 0.75776-10.13248 1.87392-13.1584 2.63168-1.58208 0.39424-2.51904 2.60096-2.63168 2.63168-11.45344 2.95424-23.57248 2.4832-31.5904 10.53184 19.74784 5.9392 25.9584 35.44064 13.16352 52.64896 13.8752-3.82464 25.98912-6.08768 36.85376-7.89504 8.704-1.44896 11.59168-1.96608 13.16352 0 1.41824 1.77152 3.12832-2.70848 2.63168-2.63168 7.38304-1.16736 13.00992 0.28672 18.42688 0 1.68448-0.09216 2.90304-2.65216 2.63168-2.63168 3.85024-0.27136 8.72448 2.78016 13.16352 2.63168 2.67776-0.09216 3.07712-2.15552 5.26336-2.63168 12.1344-2.6368 18.31424 3.05152 26.32704 2.63168 1.19296-0.06144 3.54816-2.5856 2.63168-2.63168 3.42528 0.18432 5.34016 2.11968 10.53184 2.63168 4.97664 0.49152 10.30144-0.49152 15.7952 0 17.79712 1.59744 38.47168 6.33344 55.28064 10.53184 6.24128 1.5616 11.7504 3.53792 13.1584 5.26336 0.52736 0.64 4.38272-0.24064 5.26336 0 6.00576 1.6384 11.69408 3.34848 18.42688 5.26336 10.85952 3.08736 14.848 4.992 23.69024 2.63168 6.82496-1.8176 11.89376-3.712 13.1584-5.26336 0.59392-0.72704 4.33152 0.37376 5.26336 0 6.60992-2.64704 9.43616-7.63392 13.16352-10.53184C414.848 244.0704 404.4544 236.11392 394.85952 229.0176zM589.65504 244.8128c-4.7872 7.17312-0.128 21.20192 0 23.69024 0.17408 3.34848 9.55904 10.47552 10.53184 10.52672 2.88256 0.1536 1.36192 2.02752 2.6368 2.63168 8.064 3.82464 11.66336-1.26976 15.79008-5.26336-9.92768-2.7904-18.37056-10.43968-21.05344-21.05856-1.56672-6.18496 3.3536-13.4144-2.6368-18.42688C593.57184 240.19456 591.53408 241.99168 589.65504 244.8128zM168.4736 702.848c4.09088-9.35936-8.93952-1.59232-7.89504-7.90016 0.11264-3.61984-1.23904-5.78048-2.63168-7.89504 1.46432 0.01024 2.99008-2.13504 0-2.6368C152.63744 691.0464 159.40096 702.45376 168.4736 702.848zM805.50912 694.94784c4.352-0.04096 1.47456-7.30112 5.26336-7.89504 2.76992-0.14336 2.0736-3.37408-2.63168-2.6368C807.31648 687.97952 804.39296 689.44896 805.50912 694.94784zM802.88256 702.848c-4.352-0.04096-1.47456-7.30624-5.26336-7.90016 1.57696 4.68992-7.71584 10.93632 0 13.16352 0.5888-2.04288 0.07168-5.1968 2.63168-5.26336C800.24064 704.31232 802.3808 705.83296 802.88256 702.848zM694.94784 789.71392c-2.18112 1.54624 0.83968 4.30592-2.63168 5.26336-2.81088 0.78336-4.20864-4.21888-5.26336 0 4.03968 0.62976 0.384 4.33664-2.6368 5.26336-2.64192-0.00512-3.12832 2.13504-5.26336 2.6368-3.61984 0.11264-5.78048-1.23904-7.89504-2.6368 0.33792 4.73088-2.61632 6.15936-7.90016 5.26336-1.27488 3.10784-2.80576 5.96992-5.25824 7.90016-10.04544 0.10752-16.74752 12.92288-26.32704 5.26336-4.21888 4.5568-9.84064 7.71072-15.7952 10.53184-6.00064 3.61472-9.89696-6.78912-10.53184 0 7.52128 1.37216-4.2496 3.89632-5.26336 5.26336-7.92064-0.22016-15.32928 4.37248-23.69024 5.26336-5.94432 0.62976-10.39872-1.17248-15.7952 0-3.39968 0.73728-6.61504 4.55168-10.53184 5.25824-2.41152 0.44032-3.3536-2.2784-5.26336-2.63168 0.1024 0.02048-0.3328 3.09248-2.6368 2.63168-0.9728-0.19456 0.43008-3.6352-2.63168-2.63168 1.14688-0.37376-2.97984 2.9696-2.63168 2.63168-6.29248 6.03136-11.73504 0.1024-18.432 0-9.37472-0.128-17.22368 4.5056-26.32192 5.26336-6.83008 0.57344-14.75072 0.73216-21.05856 0-2.12992-0.24576-2.17088-2.51392-2.63168-2.63168-5.34016-1.32096-13.12256-2.13504-18.42688-2.6368-3.328-0.31232-5.11488 2.9184-10.53184 2.6368-1.77152-0.09728-2.78528-2.64704-2.63168-2.6368-3.08224-0.28672-4.03968 4.1472-7.89504 2.6368-1.4848-0.57856-2.21184-5.9136-5.26336-5.26336-4.45952 6.53312-14.80704 0.48128-18.42688 0-6.35392-0.83968-13.8496 1.62816-10.53184-5.26336-6.6048 3.5328-20.89984-1.792-23.69024-2.63168-4.46464-1.35168-7.48032-1.41312-10.53184-2.6368-1.96608-0.78336-5.25312 0.08704-5.26336-2.63168 3.18464 0.26624 1.61792-3.82976 0 0-3.15392-1.05984-14.4128-1.31072-15.7952-2.6368-0.54784-0.52736 0.64-5.02272 0-5.26336-7.5776-2.83136-14.95552-0.41984-18.42688-2.63168-5.31456-3.38944-8.77568-5.46816-15.7952-5.26336 0.11264-3.62496-1.23904-5.78048-2.63168-7.90016-13.26592 1.77664-13.1072-11.4432-23.69024-5.26336-5.80096-13.4912-25.57952-13.02528-34.22208-23.69024-1.23392-1.52064 0.44032-5.61152-2.63168-5.26336-0.14336 2.76992-3.37408 2.06848-2.63168-2.63168-4.11648 0.60416-6.144-0.88064-7.89504-2.6368-4.27008-4.27008-10.74688-0.77824-5.26336-7.89504-8.89344 0.9984-11.22816-4.56704-15.7952-7.90016 0.70144-5.20704-2.75968-5.85216-5.26336-7.89504-0.87552-0.7168 0.70656-4.33664 0-5.26336-0.90624-1.18784-4.19328-1.47968-5.26336-2.6368-1.55648-1.66912-2.56-7.7568-5.26336-7.89504-3.05152-0.15872-1.16736-1.65888-2.63168-2.6368-7.42912-4.92544-11.55072-9.43104-15.7952-15.79008-3.10784-0.37888-5.96992-4.68992-7.89504 0 2.78016 2.47808 5.21216 5.3248 7.89504 7.89504 2.6368 2.52416 6.9376 3.67104 7.89504 7.89504 3.70688 5.07392 6.95808 10.59328 7.89504 18.432 1.6128 3.65056 10.13248 0.39424 10.53184 5.26336-5.64224 6.97344 1.14688 4.53632 7.89504 10.53184 6.59456 5.85216 8.82176 13.94176 18.42688 13.1584-1.26464 11.24352 5.05856-2.29888 5.26336 5.26336 0.07168 2.64192-2.18112 3.13344-2.63168 5.26336 8.04352-1.89952 9.59488 2.688 15.7952 2.63168-3.2 7.57248 8.75008 5.53984 10.53184 7.90016 2.2272 2.95424-4.03456 2.31936 0 5.26336-1.44896-1.05984 5.40672-2.15552 7.89504 0 1.34144 1.16224 1.34144 7.0656 2.63168 7.89504 2.88256 1.85344 9.10336 2.4064 13.1584 2.6368 0.27648 3.29728 3.29216 3.64544 5.26336 5.26336 0.88576 0.72192-0.83968 4.47488 0 5.26336 1.408 1.31584 6.25152-1.06496 7.89504 0 2.14528 1.38752-0.98816 4.6336 2.63168 5.26336 0.22016 0.03584 2.49344-4.736 5.26336-2.6368 1.9968 6.77888 8.40192 9.14944 18.42688 7.90016 0.14336 3.36384 3.37408 3.64544 2.63168 7.89504 3.27168 1.57184 10.24512-2.06848 13.1584 0 0.64512 0.4608-4.40832 8.14592 0 2.6368 1.21856-1.52576 3.5328 2.49856 2.63168 2.63168 5.25312-0.74752 2.78528-1.28 7.89504 0 3.38432 0.8448 5.57568 2.048 7.89504 2.63168 7.38304 1.84832 5.48864 3.81952 10.53184 5.26336-0.42496-0.11776 2.7648-3.02592 5.26336-2.63168 0.88064 0.13824 1.96096 4.58752 5.26336 2.63168 0 2.6368 0 5.26336 0 7.90016 15.0528-1.8944 23.51616 2.81088 36.85376 2.63168 0.01024 2.64704-2.13504 3.13344-2.63168 5.26336 6.17984-0.83968 9.8816-4.15744 18.42688-2.63168-0.06144 0.4096 0.0768 5.25824 0 5.26336 9.99936-0.45056 16.82944-4.992 21.05856-2.6368 0.39936 0.22528-0.36352 5.22752 0 5.26336 8.10496 0.84992 12.9024-2.57536 21.05856-2.63168 3.15904-0.02048 3.90656 2.28864 7.89504 2.63168 11.8272 1.00864 22.46144 1.41824 31.5904 0 1.01376-0.1536-0.46592-3.2512 2.63168-2.63168 0.96256 0.18944-0.4096 3.66592 2.6368 2.63168-1.10592 0.37376 2.96448-2.94912 2.63168-2.63168 5.22752-5.01248 6.48192-0.73728 10.53184 0-0.09728-0.02048 0.3328-3.09248 2.6368-2.6368 0.9728 0.19456-0.43008 3.64032 2.63168 2.6368-1.14688 0.37376 2.98496-2.9696 2.6368-2.6368 7.04-6.74304 13.31712 4.3264 18.42688-2.63168-1.4592 0.01024-2.99008-2.13504 0-2.6368 8.82176 3.5584 9.87648 1.49504 13.1584-2.63168 7.01952 0 14.03904 0 21.05856 0-0.34304-13.11232 6.8864-8.63744 15.7952-7.90016 0.67584-8.00768 6.11328-7.49056 7.89504-5.26336 1.96608 2.45248 3.74272-7.82336 7.90016-2.63168 1.29024 1.6128 3.39968-2.59584 2.63168-2.63168 2.2016 0.10752 2.23744 2.54976 2.6368 2.63168 3.76832 0.75264-0.31232-4.3776 2.63168-5.26336 3.14368-0.9472 13.1328 2.8416 13.16352-2.63168-4.03968-3.42016-0.38912 0 2.63168 0 4.76672 0-1.26464-4.38272 2.6368-5.26336 2.8672-0.65024 4.16256 4.11648 5.26336 0-1.46432 0.00512-2.99008-2.13504 0-2.6368 4.608-6.86592 10.03008 3.57376 10.52672-2.63168-1.4592 0.00512-2.98496-2.13504 0-2.6368 8.22272-0.59392 13.90592-11.64288 21.05856-5.26336-1.4848-5.33504 3.11808-3.46112 5.26336-5.26336 1.11104-0.93184 1.69984-4.1216 2.6368-5.26336 0.73216-0.89088 4.40832 0.80896 5.26336 0 0.7936-0.75264-0.47616-4.20864 0-5.26336 0.15872-0.35328 4.79744-2.31936 5.26336-2.63168 2.8416-1.87904 4.95104-3.73248 7.89504-5.26336 4.08064-2.11968 9.43104-1.3568 13.1584-5.26336-6.15936-1.91488 6.74304-12.35456 10.53184-5.26336-0.82432-10.04032 8.27904-2.2528 2.6368-7.89504-1.31072-1.31072 6.6048-8.54016 7.89504-7.90016 14.69952-2.85184 17.02912-18.06848 28.95872-23.69024 4.18816-6.3488-1.26976-8.1408 0-10.53184-0.0256 0.04096 5.16608-5.20192 5.26336-5.26336 2.45248-1.6384 6.67136 0.1024 7.89504-2.6368-2.2528-8.3968 4.1472-8.1408 5.26336-13.1584-15.92832 4.25472-18.29376 22.07232-34.22208 26.32704 0.37888 9.41056-5.28384 13.5168-10.53184 18.42688-0.93696 0.87552-4.33152-0.87552-5.26336 0-7.66464 7.16288-3.30752 12.4928-7.90016 7.90016-1.31072-1.31584-4.1984 5.504-2.63168 7.89504-8.58624 1.60256-12.2368 4.56704-15.7952 7.90016-1.25952 1.1776-3.75808 4.75648-5.26336 5.25824-3.29216 1.11104-6.03648-1.9968-7.89504-2.63168C703.95904 790.71232 698.12224 787.47648 694.94784 789.71392z" p-id="20420" fill="#2c2c2c"></path></svg>