<?xml version="1.0" standalone="no"?><!DOCTYPE svg PUBLIC "-//W3C//DTD SVG 1.1//EN" "http://www.w3.org/Graphics/SVG/1.1/DTD/svg11.dtd"><svg t="1492760880848" class="icon" style="" viewBox="0 0 1025 1024" version="1.1" xmlns="http://www.w3.org/2000/svg" p-id="26664" xmlns:xlink="http://www.w3.org/1999/xlink" width="200.1953125" height="200"><defs><style type="text/css"></style></defs><path d="M124.1 402.2c-8.6-0.4-16.1 6-16.6 14.6-0.6 8.6 6 16.1 14.6 16.7 1.5 0.1 9.7 0.6 22.4 0.6 52.1 0 180.3-8.4 238.1-86.6 5.2-7 3.7-16.8-3.3-21.9-7-5.2-16.9-3.7-22 3.3C295.6 412.4 125.8 402.4 124.1 402.2z" p-id="26665" fill="#2c2c2c"></path><path d="M880.3 433.5c8.6-0.6 15.1-8 14.6-16.7-0.6-8.7-7.3-15.1-16.7-14.6-1.8 0.2-171.5 10.2-233.2-73.3-5.2-7-15-8.4-21.9-3.3-7 5.1-8.5 15-3.3 21.9 57.8 78.3 186 86.6 238.1 86.6C870.6 434.1 878.8 433.6 880.3 433.5z" p-id="26666" fill="#2c2c2c"></path><path d="M399.4 782.4l217 0c8.7 0 15.7-7 15.7-15.7L632.1 499.9c0-8.7-7-15.7-15.7-15.7l-217 0c-8.7 0-15.7 7-15.7 15.7l0 266.8C383.7 775.3 390.7 782.4 399.4 782.4zM415.1 515.5l185.7 0L600.8 751 415.1 751 415.1 515.5z" p-id="26667" fill="#2c2c2c"></path><path d="M745.8 260.8 745.8 147.5l64.8 113.3 16.4 0 16.3 0L843.3 103.7l-15.4 0-15.3 0L812.6 214l-63-110.3-17.2 0L715.1 103.7l0 157.1 15.4 0L745.8 260.8z" p-id="26668" fill="#2c2c2c"></path><path d="M998.3 122c-13.6-15.1-32-22.6-55.2-22.6-23 0-41.4 7.5-55 22.6-13.6 15-20.4 35.4-20.4 61.1 0 25.1 6.8 45.1 20.4 59.8 13.6 14.8 32 22.1 55 22.1 23.2 0 41.6-7.4 55.2-22.1 13.6-14.7 20.3-34.7 20.3-59.8C1018.7 157.5 1011.9 137.1 998.3 122zM974.6 222.8c-7.6 9.6-18 14.4-31.4 14.4-13.4 0-23.9-4.8-31.4-14.4-7.5-9.6-11.3-22.9-11.3-39.9 0-17.4 3.8-31 11.3-40.8 7.6-9.8 18-14.8 31.3-14.8 13.4 0 23.9 4.9 31.4 14.8 7.5 9.8 11.3 23.4 11.3 40.8C985.9 199.9 982.1 213.2 974.6 222.8z" p-id="26669" fill="#2c2c2c"></path><path d="M979.3 300.5c-8.7 0-15.7 7-15.7 15.7l0 450.5c0 17.1-13.5 31.2-30.4 32.1-1.2-3.3-2.9-6.6-4.9-9.7-0.1-0.1-0.2-0.2-0.2-0.3-1.4-2.1-2.8-4.3-4.5-6.4-0.7-0.8-1.5-1.4-2.2-2.2-0.2-0.3-0.5-0.5-0.7-0.7-2.2-2.3-4.7-4.5-7.5-6.6-0.8-0.7-1.7-1.3-2.6-1.9-2.2-1.5-4.5-2.9-6.9-4.3-1-0.6-1.9-1.3-3-1.9-0.3-0.2-0.7-0.3-1.1-0.4-4.5-2.3-9.5-4.2-14.8-6-1.9-0.6-3.8-1.2-5.7-1.8-5.3-1.5-10.8-2.8-16.7-3.7-1.9-0.3-3.9-0.4-5.8-0.7-4.9-0.6-9.9-0.9-15.1-1.1-2.3-0.1-4.5-0.2-6.9-0.2-6.6 0.1-13.3 0.5-20.2 1.2-2.6 0.3-5.3 0.7-7.9 1.1-6.3 0.9-12.7 2.1-19.2 3.7-2.8 0.7-5.6 1.4-8.4 2.2-6.3 1.7-12.7 3.8-19.1 6.1-3 1.1-5.9 2.2-8.9 3.4-7.7 3.2-15.5 6.7-23.4 10.8-2.3 1.2-4.5 2.5-6.8 3.8-8 4.4-16 9.2-24.1 14.7-0.5 0.4-1 0.6-1.6 0.9l-345.8 0c-1-0.7-2-1.2-3-1.8-8.1-5.5-16.3-10.3-24.3-14.7-1.4-0.8-2.9-1.6-4.3-2.4-8.9-4.6-17.6-8.6-26.3-12-1.6-0.7-3.2-1.2-4.8-1.8-17.6-6.6-34.6-10.8-50.8-13-1.8-0.3-3.5-0.5-5.3-0.7-7.4-0.8-14.7-1.3-21.7-1.3-2 0-3.9 0.1-5.9 0.2-5.5 0.2-10.8 0.6-16 1.2-1.8 0.3-3.7 0.3-5.4 0.6-5.9 0.9-11.4 2.3-16.7 3.8-2 0.6-3.9 1.1-5.8 1.8-5.2 1.8-10.2 3.7-14.8 6-0.3 0.2-0.7 0.3-1 0.4-1.1 0.6-1.9 1.2-2.9 1.8-2.5 1.4-4.8 2.8-7.1 4.3-0.9 0.7-1.8 1.3-2.6 2-2.7 2-5.1 4.2-7.3 6.4-0.3 0.3-0.6 0.6-0.9 0.9-0.7 0.7-1.5 1.4-2.1 2.1-1.8 2-3.1 4.2-4.5 6.3-0.1 0.1-0.2 0.3-0.3 0.4-2 3.2-3.7 6.4-4.9 9.8L63.4 799.1c-17.7 0-32.1-14.4-32.1-32.1l0-597.3c0-17.7 14.4-32.1 32.1-32.1l578.4 0c8.7 0 15.7-7 15.7-15.7s-7-15.7-15.7-15.7L63.4 106.2c-35 0-63.4 28.5-63.4 63.4l0 597.4c0 35 28.5 63.5 63.4 63.5l46.8 0c2.9 8.7 8.1 17.4 15.9 25.5 2 2.1 4.6 3.6 7.4 4.3 78.4 20.3 97.9 45.4 102.5 58.6 5.1 14.5-3.3 26.1-3.9 26.8-5.2 6.8-4.1 16.5 2.7 21.8 6.8 5.4 16.6 4.2 22-2.5 7.2-9.1 17.2-31.1 9-55.7-11.3-33.5-51.6-59.8-119.9-78.2-5.5-6.6-7.1-12-7.1-16.3 0-4.4 2.3-8.8 6.2-12.9 2-2.1 4.6-4.1 7.5-6 1.1-0.7 2.1-1.4 3.3-2.1 2.4-1.3 5.5-2.4 8.4-3.6 2.3-0.9 4.4-1.9 6.8-2.7 11.5-3.4 25.6-5.3 41.7-4.7 1.6 0.1 3.4 0.3 5.1 0.4 6.3 0.4 12.9 1.1 19.7 2.3 2.8 0.5 5.6 1.2 8.4 1.8 6.2 1.3 12.5 3.1 19.1 5.1 3 1 6.1 2 9.2 3.1 7.2 2.7 14.6 5.9 22.1 9.5 2.3 1.1 4.6 2.1 7 3.3 10.1 5.3 20.4 11.4 30.8 18.7 114.4 80.3 102.1 120.9 102.2 120.9-4 7.6-1.1 17.1 6.6 21.2 2.3 1.2 4.8 1.8 7.3 1.8 5.6 0 11.1-3 13.9-8.4 4.7-9 20.5-54.1-73.9-132.1l262.9 0c-94.4 78.1-78.6 123.1-73.9 132.1 2.9 5.4 8.6 8.7 14.4 8.7 2.4 0 4.8-0.5 7-1.7 7.6-4 10.8-13.1 6.7-20.7-0.1-0.4-13.3-41 101.9-121.8 10.1-7.1 20-12.9 29.8-18.1 3.4-1.8 6.9-3.3 10.3-4.9 6.3-3 12.6-5.8 18.7-8.1 3.8-1.4 7.5-2.6 11.1-3.8 5.9-1.8 11.7-3.4 17.4-4.7 3.2-0.7 6.4-1.5 9.5-2 6.6-1.1 13-1.9 19.2-2.3 1.8-0.1 3.6-0.4 5.4-0.5 16-0.5 30.2 1.3 41.7 4.7 2.4 0.7 4.4 1.7 6.6 2.6 3 1.2 6.1 2.3 8.6 3.7 1.2 0.7 2.2 1.3 3.3 2 2.9 1.9 5.5 3.9 7.5 6 3.9 4.1 6.2 8.5 6.2 12.9 0 0 0 0 0 0 0 4.4-1.7 9.7-7.1 16.3-68.3 18.4-108.6 44.7-119.9 78.2-8.3 24.5 1.8 46.5 9 55.7 5.4 6.8 15.3 7.9 22 2.5 6.8-5.4 7.9-15.2 2.5-22-0.1-0.1-8.7-11.6-3.9-26.3 4.5-13.3 23.7-38.5 102.6-59 2.8-0.7 5.4-2.2 7.4-4.3 7.8-8.1 13.1-16.9 16-25.7 34.1-0.9 61.7-28.9 61.7-63.3l0-450.5C994.9 307.5 987.9 300.5 979.3 300.5z" p-id="26670" fill="#2c2c2c"></path><path d="M360.5 306.6c7.5 0 15-0.6 22.2-1.9 8.5-1.6 14.2-9.7 12.6-18.2-1.6-8.5-9.7-14.3-18.2-12.6-19.8 3.6-41.4 0-50.7-5.6-7.5-4.5-17.1-2.1-21.5 5.4-4.5 7.4-2 17.1 5.4 21.5C322.5 302.5 341.4 306.6 360.5 306.6z" p-id="26671" fill="#2c2c2c"></path><path d="M621.8 280.5c-8.5-1.9-16.9 3.3-18.8 11.7-2 8.4 3.2 16.9 11.7 18.9 4.7 1.1 10.1 1.7 15.8 1.7 17.7 0 38.8-5.2 56.2-14.3 7.6-4 10.6-13.5 6.6-21.2-4-7.7-13.5-10.6-21.2-6.6C654.2 280 632.5 283.1 621.8 280.5z" p-id="26672" fill="#2c2c2c"></path></svg>