<?xml version="1.0" standalone="no"?><!DOCTYPE svg PUBLIC "-//W3C//DTD SVG 1.1//EN" "http://www.w3.org/Graphics/SVG/1.1/DTD/svg11.dtd"><svg t="1492760900258" class="icon" style="" viewBox="0 0 1024 1024" version="1.1" xmlns="http://www.w3.org/2000/svg" p-id="27396" xmlns:xlink="http://www.w3.org/1999/xlink" width="200" height="200"><defs><style type="text/css"></style></defs><path d="M342.955908 429.697154a21.453005 21.453005 0 0 1-17.216037-8.688467C308.738364 398.214869 287.124461 386.308451 263.20436 386.308451a83.613088 83.613088 0 0 0-65.914358 34.968398 21.453005 21.453005 0 0 1-34.432074-25.636341A126.679997 126.679997 0 0 1 263.150728 343.40244c37.542759 0 71.9212 18.610482 96.913952 52.238068a21.453005 21.453005 0 0 1-17.216037 34.217543zM680.894375 429.697154a21.453005 21.453005 0 0 1-16.089754-35.772886A135.582994 135.582994 0 0 1 762.898488 348.765691c35.987416 0 69.239575 15.178001 96.538524 44.729516a21.453005 21.453005 0 0 1-31.482286 29.176088C809.022449 402.398205 787.408546 391.671702 763.917505 391.671702h-0.697222a93.642368 93.642368 0 0 0-66.343419 30.73143 21.453005 21.453005 0 0 1-15.982489 7.294022zM509.484862 659.834269h-5.899577c-83.130396-3.003421-139.444535-69.454105-141.536202-72.242996a21.453005 21.453005 0 0 1 32.983995-27.459847c0.64359 0.750855 46.821184 54.705164 110.482978 56.850465 40.11712 1.340813 79.912445-18.12779 117.991529-57.976747a21.453005 21.453005 0 1 1 30.94596 29.712412c-45.373106 46.928449-94.125061 71.116713-144.968683 71.116713z" p-id="27397"></path><path d="M176.480586 838.108743a21.453005 21.453005 0 0 1-15.338898-6.650431 489.71848 489.71848 0 1 1 840.528749-341.531846 487.144119 487.144119 0 0 1-138.479149 341.263683 21.453005 21.453005 0 0 1-30.785063-29.926942 446.812469 446.812469 0 1 0-640.533107 0.42906 21.453005 21.453005 0 0 1-15.392532 36.416476zM511.951957 979.644946a494.169978 494.169978 0 0 1-84.471208-7.240389 21.453005 21.453005 0 1 1 7.347654-42.262421 451.424865 451.424865 0 0 0 77.123554 6.596799 390.551962 390.551962 0 0 0 77.44535-7.669449 21.453005 21.453005 0 0 1 7.883979 42.155155 435.710539 435.710539 0 0 1-85.329329 8.420305z" p-id="27398"></path><path d="M241.536825 1023.999035a21.453005 21.453005 0 0 1-19.361337-30.677798c1.233548-2.627993 10.726503-24.992751-5.953209-38.883572s-43.549601-24.402794-62.535511-31.643183a150.707363 150.707363 0 0 1-27.513479-12.281846c-19.039542-12.550008-33.949381-39.312632-25.582709-66.182521 6.918594-22.150228 30.624165-48.269262 103.886178-46.928449 12.979068-0.375428 151.136423 0 254.647174 163.203738l0.589957 1.019018c2.306198 4.076071 9.224792 19.575867 2.252566 46.338491a21.453005 21.453005 0 0 1-41.511565-10.726503 34.592971 34.592971 0 0 0 1.28718-15.285266c-92.301556-143.735136-211.25847-141.589835-216.299926-141.48257h-1.233548c-45.051311-0.804488-60.551108 10.136545-62.589143 16.786977-1.769873 5.685046 2.949788 14.158984 8.259407 17.645096a175.110156 175.110156 0 0 0 19.200439 7.991245c21.7748 8.259407 51.594478 19.6295 74.602827 38.669042 34.592971 28.639762 26.440829 71.760303 17.269669 90.531683a21.453005 21.453005 0 0 1-19.41497 11.906418z m180.687938-41.511566l0.750855 1.179916z m0 0zM582.63961 1023.945402a21.453005 21.453005 0 0 1-20.755783-16.089754c-7.025859-26.816257 0-42.208788 2.252566-46.338491l0.589958-1.019018c103.457118-162.935576 241.614473-163.579166 254.647173-163.203738 73.422911-1.28718 96.967584 24.778221 103.886179 46.928449 8.366672 26.816257-6.543167 53.632513-25.582709 66.182521a150.171037 150.171037 0 0 1-27.51348 12.281846c-18.98591 7.240389-44.944046 17.108772-62.53551 31.643183s-7.133124 36.416477-5.953209 38.883572a21.453005 21.453005 0 0 1-38.669042 18.610482c-9.17116-18.825012-17.323302-61.945553 17.269669-90.531682 23.008348-19.039542 52.828026-30.409635 74.602826-38.669043a175.378319 175.378319 0 0 0 19.146807-7.991244c5.363251-3.486113 10.02928-11.906418 8.259407-17.645097-2.091668-6.650432-17.645097-17.591464-62.589143-16.786977h-1.340813c-4.934191 0-123.944738-2.306198-216.192661 141.482571a34.592971 34.592971 0 0 0 1.28718 15.285266 21.453005 21.453005 0 0 1-20.755782 26.816257z m18.98591-41.4043l-0.697223 1.07265z m0 0z" p-id="27399"></path></svg>