<?xml version="1.0" standalone="no"?><!DOCTYPE svg PUBLIC "-//W3C//DTD SVG 1.1//EN" "http://www.w3.org/Graphics/SVG/1.1/DTD/svg11.dtd"><svg t="1492758855654" class="icon" style="" viewBox="0 0 1024 1024" version="1.1" xmlns="http://www.w3.org/2000/svg" p-id="20217" xmlns:xlink="http://www.w3.org/1999/xlink" width="200" height="200"><defs><style type="text/css"></style></defs><path d="M851.583663 430.976842c-19.900039-35.73207-57.648113-57.926113-98.512192-57.926113-39.688078 0-77.520151 21.982043-98.736193 57.370112-5.684011 9.482019-2.608005 21.774043 6.874013 27.458053 9.480019 5.682011 21.774043 2.608005 27.458054-6.874013 14.024027-23.394046 38.704076-37.924074 64.404126-37.924074 26.352051 0 50.702099 14.320028 63.542124 37.372073a20.000039 20.000039 0 0 0 27.226053 7.748015c9.658019-5.380011 13.124026-17.568034 7.744015-27.224053zM510.124996 430.976842c-19.898039-35.73207-57.644113-57.926113-98.510192-57.926113-39.686078 0-77.518151 21.982043-98.736193 57.370112-5.684011 9.480019-2.608005 21.774043 6.872014 27.458053 9.484019 5.682011 21.776043 2.608005 27.458053-6.874013 14.026027-23.394046 38.706076-37.924074 64.404126-37.924074 26.352051 0 50.702099 14.320028 63.542124 37.372073a20.000039 20.000039 0 0 0 27.226053 7.748015c9.658019-5.380011 13.124026-17.568034 7.744015-27.224053z" fill="#2c2c2c" p-id="20218"></path><path d="M989.055932 530.873037c-32.608064-35.66607-154.132301-64.684126-178.162348-70.140137a20.016039 20.016039 0 0 0-24.266048 22.184043c2.042004 15.16603 9.778019 68.578134 23.152046 115.436226H352.584689c10.44202-41.766082 16.580032-84.226165 18.362036-97.476191a20.016039 20.016039 0 0 0-24.266048-22.184043c-24.030047 5.454011-145.554284 34.474067-178.162348 70.136137-37.430073 40.93608-34.574068 104.696204 6.364013 142.126278 18.694037 17.092033 42.604083 26.358051 67.772132 26.358051 1.532003 0 3.068006-0.034 4.608009-0.104 26.844052-1.200002 51.614101-12.786025 69.744136-32.618064 0.272001-0.296001 0.534001-0.652001 0.804002-0.958002 29.422057 121.380237 138.980271 211.796414 269.274526 211.796414 130.536255 0 241.356471-91.054178 269.912527-214.338419 17.220034 12.094024 37.508073 18.218036 57.850113 18.218036 11.548023 0 23.104045-1.996004 34.132066-5.962012-30.358059 72.630142-78.866154 137.476269-140.898275 187.182366-84.456165 67.674132-186.428364 103.444202-294.888576 103.444202-260.246508 0-471.970922-211.726414-471.970921-471.970922S252.950494 40.030078 513.197002 40.030078c214.730419 0 402.530786 144.914283 456.696892 352.404688 2.792005 10.698021 13.724027 17.106033 24.420048 14.310028 10.696021-2.792005 17.104033-13.728027 14.310028-24.420047C949.857855 157.216307 746.133457 0 513.197002 0c-282.320551 0-512.001 229.680449-512.001 511.999s229.680449 511.999 511.999 511.999c115.976227 0 229.592448-39.858078 319.916625-112.234219 88.950174-71.270139 152.292297-171.266335 178.362349-281.56055a19.986039 19.986039 0 0 0 0.502001-5.622011c8.454017-31.996062 1.024002-67.522132-22.920045-93.708183zM287.470561 657.581284c-10.920021 11.942023-25.83405 18.916037-41.996082 19.638039-16.140032 0.734001-31.636062-4.89201-43.578085-15.808031-24.650048-22.536044-26.368052-60.924119-3.832007-85.574167 14.874029-16.268032 76.84015-37.304073 128.718251-51.0161-9.022018 52.890103-24.436048 116.486228-39.312077 132.760259z m299.616586 197.816387c-123.958242 0-225.998441-95.648187-236.192462-217.014424h472.388923c-10.20202 122.118239-112.928221 217.014424-236.196461 217.014424z m368.59072-211.942414c-11.936023 10.920021-27.406054 16.538032-43.578086 15.808031-16.164032-0.724001-31.076061-7.698015-41.994082-19.638039-7.104014-7.772015-10.584021-18.726037-14.254027-28.370055-9.856019-27.620054-18.934037-68.472134-25.062049-104.400204 51.868101 13.706027 113.824222 34.734068 128.718251 51.0241 22.540044 24.650048 20.820041 63.040123-3.830007 85.576167z" fill="#2c2c2c" p-id="20219"></path><path d="M1002.787959 452.064883m-20.01404 0a20.014039 20.014039 0 1 0 40.028079 0 20.014039 20.014039 0 1 0-40.028079 0Z" fill="#2c2c2c" p-id="20220"></path></svg>