<?xml version="1.0" standalone="no"?><!DOCTYPE svg PUBLIC "-//W3C//DTD SVG 1.1//EN" "http://www.w3.org/Graphics/SVG/1.1/DTD/svg11.dtd"><svg t="1492761038714" class="icon" style="" viewBox="0 0 1024 1024" version="1.1" xmlns="http://www.w3.org/2000/svg" p-id="32651" xmlns:xlink="http://www.w3.org/1999/xlink" width="200" height="200"><defs><style type="text/css"></style></defs><path d="M1.565465 1024V777.247687c1.045682-1.828409 2.228469-3.593381 3.115559-5.495459 24.148912-51.759215 48.549523-103.403834 72.275865-155.356428 12.290345-26.910453 26.335431-53.548743 34.187255-81.810807 8.068736-29.042744 9.67614-59.897527 13.726879-90.01051 0.357087-2.653086-1.531689-6.175868-3.391816-8.473912-32.48265-40.14314-26.04178-93.6264 14.942407-125.288466 2.968223-2.292929 5.507736-6.66699 6.019323-10.380083 5.95077-43.170707 19.217221-83.652517 42.747113-120.569595 4.751612-7.455856 4.178635-8.423777-4.517305-10.41794-37.190265-8.532233-60.610678-41.063995-57.689521-80.130758 2.596811-34.723397 31.989481-64.129367 66.748688-66.77836 38.877476-2.963107 71.308967 20.568832 79.93124 57.996473 1.952213 8.474936 2.853627 8.86988 10.460913 3.952514 25.026793-16.1784 51.771493-28.79616 80.001838-38.196043C429.206447 23.288424 500.234042 18.679033 572.190677 25.240636c69.441678 6.332413 134.529757 25.947648 192.438238 66.160365 1.617635 1.123443 3.662957 1.630937 6.537047 2.867951 0.624135-3.467531 1.160277-5.972256 1.518388-8.502561 5.461693-38.490717 39.092342-65.538276 78.839515-63.384498 37.808261 2.048391 68.238427 33.641904 69.359824 72.008817 1.140837 39.072902-26.943195 71.372404-66.392625 76.356276-8.984476 1.135721-9.567684 2.153778-4.8703 9.65056 23.215778 37.052137 36.661285 77.479719 42.341938 120.70977 0.501354 3.816433 2.885346 7.810897 5.443276 10.835394 4.099851 4.846767 9.352818 8.70208 13.639909 13.411742 23.406088 25.707203 27.971483 69.865271 8.184355 98.297182-8.331692 11.971115-10.787305 22.877108-8.332715 36.740069 4.135662 23.360046 4.599159 47.598996 10.864043 70.29398 7.413906 26.861341 18.329108 52.919492 29.525682 78.538702 21.804824 49.890902 45.057437 99.147438 67.190699 148.898166 3.240387 7.284986 5.075958 15.830521 5.113815 23.805126 0.374481 77.698678 0.228167 155.400425 0.230213 233.100126v8.971174l-1022.256514 0.001023z m504.549771-456.305153c62.937372 0.002046 112.094659-14.028715 154.062116-48.763367 29.130737-24.110031 48.162764-54.534058 50.830174-92.906087 3.337588-48.015428-18.072292-85.244573-54.636375-114.281178-40.011151-31.773591-86.637111-45.499447-137.167495-45.827885-58.958255-0.38369-112.212324 15.900097-156.081858 57.154402-56.812663 53.425962-55.617597 137.701591 2.250979 189.877237 42.689816 38.488671 93.559894 53.834208 140.742459 54.746878z m184.365409-269.781875c39.650994 0.068553 71.815437-31.981295 71.992446-71.736653 0.175986-39.406456-32.142956-72.13569-71.516671-72.423201-39.205914-0.286488-72.211405 32.348614-72.380229 71.566806-0.171893 40.156441 31.888186 72.524496 71.904454 72.593048z m-347.648353-0.008185c39.35939-0.469636 71.361149-32.824389 71.042942-71.825669-0.327415-40.137001-33.153851-72.952182-72.381251-72.357719-40.057194 0.606741-71.887059 33.291979-71.387751 73.305177 0.495215 39.706246 32.967633 71.35194 72.72606 70.878211z m505.1913-162.169733c15.4366-0.354018 27.69318-3.963769 36.848526-14.715263 11.067654-12.997357 12.524652-32.170582 3.733555-46.328216-9.106233-14.665128-28.509672-21.962392-46.291382-17.409276-17.153483 4.391455-29.772266 18.990077-31.069648 35.602301-0.52898 6.769308 0.921878 12.40801 5.999882 17.376535 5.706232 5.583451 10.995009 11.647793 15.993205 17.881981 4.393502 5.479087 9.554383 8.36648 14.785862 7.591938z m-653.012065-0.481914c2.394223 0 4.842674 0.329461 7.171414-0.06139 7.395489-1.238038 31.55054-29.202359 32.002782-36.812715 1.125489-18.932779-11.208852-35.664715-30.21223-40.985211-18.596156-5.2059-39.798331 3.2189-48.009289 19.496548-12.687336 25.152644 2.002348 58.58582 39.047323 58.362768z m466.651471-33.296071c3.038822-0.730545 4.162265-0.745893 5.004336-1.240085 24.694262-14.495281 48.041007-13.548847 69.993167 5.763529 1.326031 1.166416 3.806201 1.022149 5.750228 1.487693 0.013301-2.729824 0.972014-5.92826-0.111526-8.113756-7.228712-14.572019-17.749992-26.025409-34.916776-26.99947-18.055921-1.024195-32.351683 7.364794-42.934354 21.91635-1.127536 1.550106-1.46109 3.676258-2.785075 7.185739zM369.241391 100.181865c-1.915378-4.631901-2.409571-7.298288-3.895217-9.182971-10.664524-13.531453-24.633895-21.791523-41.944946-20.715146-16.921223 1.052844-27.887583 12.006926-34.839015 26.896129-1.062053 2.273489-0.398014 5.353237-0.53205 8.060551 2.534398-0.872766 5.597775-1.111165 7.522362-2.715499 20.457306-17.057305 42.222226-18.197119 65.299877-5.973279 1.941981 1.029311 4.039484 1.761903 8.388989 3.630215z" fill="" p-id="32652"></path><path d="M515.301277 359.003518c-19.460736-0.053205-44.822107-18.067176-51.49626-36.680725-2.733916-7.625703-0.432802-14.018483 5.025822-19.683788 22.049362-22.883247 71.885013-22.873016 93.607983 0.185194 5.265244 5.588567 7.508038 12.089803 4.67999 19.812708-6.554441 17.899375-32.834621 36.418793-51.817535 36.366611zM488.368313 471.372388c-0.097201-13.308402 2.216191-25.996761 9.439788-37.471638 9.820407-15.599284 25.645813-16.145658 36.359449-1.217575 13.31761 18.555229 13.977556 55.754702 1.326031 74.755012-11.756249 17.656884-29.091857 17.447133-38.65954-1.610474-5.230457-10.418963-7.188808-22.482164-10.621551-33.803565l2.155823-0.65176zM690.844894 246.174221c-13.061817-0.084923-23.33549-10.960221-23.063326-24.41289 0.261932-12.927781 10.568346-22.650987 23.946324-22.591643 12.986102 0.058321 23.079697 10.329947 23.054117 23.463386-0.025579 13.306355-10.52128 23.628117-23.937115 23.541147zM317.881214 222.550197c-0.016371-13.539638 10.184657-23.539101 23.873678-23.400973 12.906295 0.129943 23.194292 10.511049 23.263867 23.473618 0.068553 12.836719-11.023658 23.661882-24.130494 23.550356-12.843881-0.108456-22.991704-10.528442-23.007051-23.623001z" fill="" p-id="32653"></path><path d="M184.303006 380.80118m-78.795518 0a78.795518 78.795518 0 1 0 157.591037 0 78.795518 78.795518 0 1 0-157.591037 0Z" fill="#F20808" p-id="32654"></path><path d="M847.612277 377.731663m-78.795518 0a78.795518 78.795518 0 1 0 157.591037 0 78.795518 78.795518 0 1 0-157.591037 0Z" fill="#F20808" p-id="32655"></path></svg>