<?xml version="1.0" standalone="no"?><!DOCTYPE svg PUBLIC "-//W3C//DTD SVG 1.1//EN" "http://www.w3.org/Graphics/SVG/1.1/DTD/svg11.dtd"><svg t="1492758437797" class="icon" style="" viewBox="0 0 1025 1024" version="1.1" xmlns="http://www.w3.org/2000/svg" p-id="7981" xmlns:xlink="http://www.w3.org/1999/xlink" width="200.1953125" height="200"><defs><style type="text/css"></style></defs><path d="M965 593.18c-42.54-274.74-126.48-541.14-405.66-541.14-511.56-0.060-527.34 825.24-527.34 825.24h189.3c0 0 137.46 94.74 229.86 94.74s67.62-94.74 67.62-94.74h94.62c0 0-6.78 94.74 67.56 94.74 108.18 0 216.3-78.9 229.86-94.74 13.56-15.78 81.18 0 81.18 0s1.020-102.9-27-284.1zM614.72 740.42c-233.16 0-256.86-136.26-256.86-304.38s115.020-304.44 256.86-304.44c165.54 0 256.86 136.32 256.86 304.44 0 168.12-11.88 304.38-256.86 304.38z" p-id="7982" fill="#2c2c2c"></path><path d="M451.88 365.36c0 37.345 30.275 67.62 67.62 67.62s67.62-30.275 67.62-67.62c0-37.345-30.275-67.62-67.62-67.62-37.345 0-67.62 30.275-67.62 67.62 0 0 0 0 0 0z" p-id="7983" fill="#2c2c2c"></path><path d="M614.18 629.18c0 18.689 18.159 33.84 40.56 33.84s40.56-15.151 40.56-33.84c0-18.689-18.159-33.84-40.56-33.84-22.401 0-40.56 15.151-40.56 33.84z" p-id="7984" fill="#2c2c2c"></path><path d="M695.3 365.36c0 37.345 27.239 67.62 60.84 67.62s60.84-30.275 60.84-67.62c0-37.345-27.239-67.62-60.84-67.62-33.601 0-60.84 30.275-60.84 67.62z" p-id="7985" fill="#2c2c2c"></path></svg>