<?xml version="1.0" standalone="no"?><!DOCTYPE svg PUBLIC "-//W3C//DTD SVG 1.1//EN" "http://www.w3.org/Graphics/SVG/1.1/DTD/svg11.dtd"><svg t="1492760997249" class="icon" style="" viewBox="0 0 1024 1024" version="1.1" xmlns="http://www.w3.org/2000/svg" p-id="31664" xmlns:xlink="http://www.w3.org/1999/xlink" width="200" height="200"><defs><style type="text/css"></style></defs><path d="M934.517 244.82c-31.175 13.84-64.556 23.083-99.685 27.312 35.817-21.472 63.359-55.497 76.327-96.006a349.525 349.525 0 0 1-110.215 42.117c-31.68-33.749-76.787-54.761-126.722-54.761-95.868 0-173.528 77.66-173.528 173.481 0 13.656 1.517 26.853 4.459 39.59-144.239-7.266-272.201-76.327-357.772-181.392-14.989 25.656-23.541 55.498-23.541 87.271 0 60.279 30.668 113.341 77.246 144.515a173.137 173.137 0 0 1-78.625-21.749v2.162c0 84.144 59.82 154.264 139.229 170.264-14.53 3.954-29.887 6.024-45.75 6.024a177.51 177.51 0 0 1-32.647-3.035c22.071 68.97 86.213 119.088 162.126 120.514-59.359 46.487-134.17 74.258-215.554 74.258a351.73 351.73 0 0 1-41.382-2.437c76.833 49.291 168.011 78.028 266.086 78.028 319.241 0 493.828-264.479 493.828-493.919 0-7.448-0.139-14.989-0.507-22.438 33.933-24.415 63.36-54.946 86.627-89.799zM671.711 356.179c-24.437 0-44.248-19.81-44.248-44.247 0-24.438 19.812-44.249 44.248-44.249 24.438 0 44.248 19.811 44.248 44.249 0 24.437-19.811 44.247-44.248 44.247z" p-id="31665" fill="#2c2c2c"></path></svg>