<?xml version="1.0" standalone="no"?><!DOCTYPE svg PUBLIC "-//W3C//DTD SVG 1.1//EN" "http://www.w3.org/Graphics/SVG/1.1/DTD/svg11.dtd"><svg t="1492760484621" class="icon" style="" viewBox="0 0 1024 1024" version="1.1" xmlns="http://www.w3.org/2000/svg" p-id="21395" xmlns:xlink="http://www.w3.org/1999/xlink" width="200" height="200"><defs><style type="text/css"></style></defs><path d="M512 0.499756" p-id="21396"></path><path d="M924.322671 598.864586 924.322671 313.895731c0-53.909677-40.040449-98.525892-91.91412-105.98425L832.408551 107.199656C832.408551 48.089519 784.320031 0 725.209894 0c-59.110138 0-107.194659 48.089519-107.194659 107.261626l0.620697 211.431762c-18.170128-14.158087-40.94001-22.682924-65.705917-22.682924-34.53014 0-65.210159 16.478954-84.826581 41.906538-0.568722-0.045978-1.111457-0.170917-1.690175-0.170917-0.480765 0-0.930546 0.108947-1.401316 0.139932-19.41552-27.588529-51.438883-45.695688-87.660197-45.695688-24.259155 0-46.590251 8.193-64.574469 21.834339L312.777277 183.843233c0-59.110138-48.089519-107.199656-107.199656-107.199656S98.378963 124.733095 98.378963 183.843233c0 0.630692 0.128937 1.230399 0.185909 1.850097-1.768137 3.049511-2.858604 6.538807-2.858604 10.317962l0 412.048804c0 229.074147 186.366001 415.440148 415.440148 415.440148s415.440148-186.366001 415.440148-415.440148C926.571572 604.742715 925.712992 601.646227 924.322671 598.864586zM552.91902 337.364271c36.303274 0 65.845849 29.536578 65.845849 65.845849l0 125.715615c0 0.873573 0.149927 1.70017 0.257874 2.543758-0.103949 0.842589-0.257874 1.674183-0.257874 2.542758 0 36.303274-29.542575 65.845849-65.845849 65.845849-36.303274 0-65.845849-29.542575-65.845849-65.845849L487.073171 403.204123C487.073171 366.905847 516.615746 337.364271 552.91902 337.364271zM377.330756 333.549134c36.303274 0 65.845849 29.536578 65.845849 65.845849 0 3.541271 0.971526 6.828666 2.543758 9.738245l0 115.13878c-1.571233 2.915576-2.543758 6.197974-2.543758 9.744242 0 36.303274-29.536578 65.845849-65.845849 65.845849-36.308271 0-65.845849-29.542575-65.845849-65.845849l0-8.911649L311.484908 407.778889c0.775621-2.17094 1.271379-4.476814 1.271379-6.911625l0-14.283026C318.737367 356.39198 345.410343 333.549134 377.330756 333.549134zM511.131424 982.152433c-206.272281 0-374.086341-167.81406-374.086341-374.086341l0-412.048804c0-0.630692-0.128937-1.230399-0.185909-1.850097 1.768137-3.049511 2.858604-6.538807 2.858604-10.317962 0-36.303274 29.536578-65.845849 65.845849-65.845849s65.845849 29.536578 65.845849 65.845849l0 167.66913c-0.775621 2.17094-1.271379 4.476814-1.271379 6.910626l0 40.965997 0 125.710618 0 8.911649c0 59.115135 48.089519 107.199656 107.199656 107.199656 36.303274 0 68.393605-18.180123 87.794132-45.871602 19.400527 27.691479 51.490858 45.871602 87.794132 45.871602 59.115135 0 107.199656-48.089519 107.199656-107.199656 0-0.873573-0.149927-1.70017-0.258874-2.542758 0.103949-0.842589 0.258874-1.675182 0.258874-2.543758L660.125673 403.215118c0-8.973618-1.230399-17.642386-3.313382-25.975317 2.093978-3.241417 3.329374-7.08654 3.313382-11.232515l-0.754632-258.797634c0-36.303274 29.536578-65.845849 65.840851-65.845849 36.303274 0 65.845849 29.536578 65.845849 65.845849L791.057741 207.988443c0 0.687664 0.133935 1.333349 0.201901 2.00602-46.631231 11.620326-81.327289 53.733763-81.327289 103.911262l0 198.49308c0 11.418425 9.258479 20.676904 20.676904 20.676904s20.676904-9.258479 20.676904-20.676904l0-198.49308c0-36.308271 29.542575-65.845849 65.845849-65.845849s65.840851 29.536578 65.840851 65.845849l0 328.276709c0 1.214407 0.154924 2.387834 0.356826 3.546268C864.384937 834.374591 704.697909 982.152433 511.131424 982.152433z" p-id="21397"></path><path d="M533.699405 674.330737c-0.051975 0-0.097952 0-0.139932 0-11.418425 0.077962-20.614934 9.392414-20.54197 20.810838 0.082959 12.215036-4.600754 23.737409-13.181564 32.431164-8.58081 8.694755-20.031219 13.522397-32.251252 13.605357-12.122081 0.118942-23.737409-4.600754-32.426167-13.181564-8.694755-8.58081-13.527395-20.036217-13.610354-32.251252-0.077962-11.418425-9.315451-20.769858-20.810838-20.542969-11.418425 0.077962-20.614934 9.392414-20.542969 20.810838 0.154924 23.261642 9.356431 45.07599 25.913347 61.415012 16.416984 16.20009 38.117388 25.101743 61.157138 25.096746 0.196904 0 0.392808 0 0.589712 0 23.261642-0.149927 45.07599-9.356431 61.416012-25.913347s25.256668-38.490206 25.101743-61.751848C554.299346 683.50026 545.056859 674.330737 533.699405 674.330737z" p-id="21398"></path><path d="M552.924018 470.694169m-44.6472 0a44.669 44.669 0 1 0 89.294399 0 44.669 44.669 0 1 0-89.294399 0Z" p-id="21399"></path><path d="M376.152332 470.694169m-44.6472 0a44.669 44.669 0 1 0 89.294399 0 44.669 44.669 0 1 0-89.294399 0Z" p-id="21400"></path></svg>