<?xml version="1.0" standalone="no"?><!DOCTYPE svg PUBLIC "-//W3C//DTD SVG 1.1//EN" "http://www.w3.org/Graphics/SVG/1.1/DTD/svg11.dtd"><svg t="1492760857100" class="icon" style="" viewBox="0 0 1024 1024" version="1.1" xmlns="http://www.w3.org/2000/svg" p-id="25966" xmlns:xlink="http://www.w3.org/1999/xlink" width="200" height="200"><defs><style type="text/css"></style></defs><path d="M177.830234 1024C98.60987 1024 34.151065 959.687481 34.151065 880.64s64.458805-143.36 143.679169-143.36c79.220364 0 143.679169 64.312519 143.679169 143.36S257.050597 1024 177.830234 1024zM177.830234 790.461506c-49.896727 0-90.484364 40.454649-90.484364 90.165195S127.933506 970.805195 177.830234 970.805195c49.883429 0 90.484364-40.454649 90.484364-90.165195S227.726961 790.461506 177.830234 790.461506z" p-id="25967"></path><path d="M841.302442 1024c-79.233662 0-143.692468-64.312519-143.692468-143.36s64.458805-143.36 143.692468-143.36c79.220364 0 143.679169 64.312519 143.679169 143.36S920.522805 1024 841.302442 1024zM841.302442 790.461506c-49.896727 0-90.497662 40.454649-90.497662 90.165195S791.405714 970.805195 841.302442 970.805195s90.484364-40.454649 90.484364-90.165195S891.199169 790.461506 841.302442 790.461506z" p-id="25968"></path><path d="M515.537455 792.177039c-174.69174 0-189.200623-126.56374-189.320312-127.827117-1.43626-14.628571 9.242597-27.634701 23.85787-29.08426 14.468987-1.476156 27.475117 9.096312 29.057662 23.578597 0.492052 3.883221 11.942234 80.124675 136.404779 80.124675 124.994494 0 136.019117-76.90639 136.431377-80.17787 1.795325-14.44239 14.734961-24.841974 29.363532-23.325922 14.468987 1.609143 24.961662 14.389195 23.538701 28.871481C704.724779 665.639896 690.215896 792.177039 515.537455 792.177039z" p-id="25969"></path><path d="M785.115429 436.955429c-13.298701 0-24.775481-9.960727-26.371325-23.485506-3.045403-25.18774-18.405403-80.364052-44.284675-80.364052-25.693091 0-39.470545 54.750753-41.824416 79.739013-1.383065 14.628571-14.163117 25.29413-28.97787 23.990857-14.628571-1.369766-25.360623-14.349299-23.990857-28.964571 4.468364-47.529558 29.456623-127.960104 94.779844-127.960104 64.897662 0 91.588156 80.058182 97.120416 127.348364 1.715532 14.588675-8.723948 27.794286-23.325922 29.509818C787.190026 436.902234 786.152727 436.955429 785.115429 436.955429z" p-id="25970"></path><path d="M424.122182 436.955429c-13.298701 0-24.775481-9.947429-26.371325-23.458909l0 0c-3.045403-25.18774-18.405403-80.377351-44.284675-80.377351-25.679792 0-39.470545 54.750753-41.824416 79.739013-1.383065 14.628571-14.349299 25.360623-28.964571 23.990857-14.628571-1.369766-25.373922-14.349299-23.990857-28.964571 4.455065-47.529558 29.443325-127.960104 94.779844-127.960104 64.884364 0 91.574857 80.058182 97.107117 127.348364 1.702234 14.588675-8.737247 27.794286-23.325922 29.509818C426.196779 436.902234 425.146182 436.955429 424.122182 436.955429z" p-id="25971"></path><path d="M697.609974 880.64c0-6.090805 0.505351-12.048623 1.236779-17.926649-56.971636 28.632104-121.24426 44.856519-189.293714 44.856519-68.036156 0-132.308779-16.224416-189.280416-44.856519 0.731429 5.891325 1.236779 11.849143 1.236779 17.926649 0 13.498182-1.994805 26.504312-5.465766 38.885403 59.165922 26.411221 124.62213 41.225974 193.522701 41.225974 68.900571 0 134.356779-14.814753 193.522701-41.225974C699.604779 907.144312 697.609974 894.124883 697.609974 880.64z" p-id="25972"></path><path d="M170.648935 737.319896c-52.303792-70.097455-83.303065-156.884779-83.303065-250.77361 0-232.155429 189.400104-421.023584 422.220468-421.023584 232.820364 0 422.220468 188.868156 422.220468 421.023584 0 93.888831-30.999273 180.676156-83.303065 250.77361 19.748571 0.984104 38.406649 5.904623 55.256104 14.070026 51.266494-75.66961 81.228468-166.832208 81.228468-264.843636 0-261.479065-213.271273-474.21839-475.415273-474.21839S34.151065 225.053922 34.151065 486.532987c0 98.011429 29.961974 189.174026 81.228468 264.843636C132.242286 743.224519 150.900364 738.290701 170.648935 737.319896z" p-id="25973"></path></svg>