<?xml version="1.0" standalone="no"?><!DOCTYPE svg PUBLIC "-//W3C//DTD SVG 1.1//EN" "http://www.w3.org/Graphics/SVG/1.1/DTD/svg11.dtd"><svg t="1492760711272" class="icon" style="" viewBox="0 0 1024 1024" version="1.1" xmlns="http://www.w3.org/2000/svg" p-id="23238" xmlns:xlink="http://www.w3.org/1999/xlink" width="200" height="200"><defs><style type="text/css"></style></defs><path d="M808.96 651.328c-23.872-45.184-31.104-90.688-14.464-141.12 11.2-33.792-11.52-57.28-37.888-75.712-25.088-17.344-48.512-13.632-72 4.032-32.192 24-40.32 81.344-20.736 124.416 8.96 19.648 11.968 43.2 12.608 64.96 0.768 22.592-4.544 45.248-6.336 59.2-1.536 54.08 14.592 75.968 54.912 83.648 69.568 13.248 103.808-20.736 91.776-91.328C815.36 669.888 813.44 659.904 808.96 651.328zM750.144 456c0 0 12.288 1.152 14.784 9.152 2.432 8.192 4.8 16.512-9.536 16.128C741.12 480.896 750.144 456 750.144 456zM721.088 451.008c7.104-0.832 14.144 1.664 17.6 8.128 3.456 6.528 3.2 16.832 3.2 16.832s0.512 17.6-14.336 16.256c-6.72-0.512-13.376-8.704-13.44-18.048C714.112 463.168 721.088 451.008 721.088 451.008zM697.792 465.152c19.2 17.408 0 38.784 0 38.784s-17.408-6.016-17.92-18.56C679.424 472.768 697.792 465.152 697.792 465.152zM692.032 738.56c-16.32-15.296 17.408-17.408 17.408-17.408C727.488 746.304 708.288 753.792 692.032 738.56zM690.048 714.816c-9.024 0.448-5.824-34.368-5.824-34.368s47.872-0.32 56.896 0c8.96 0.512 32.256 32.896 32.256 32.896S699.072 714.368 690.048 714.816zM743.808 746.432c-7.232 0-18.624-6.592-18.624-13.504 0-6.848 11.392-11.84 18.624-11.84 7.104 0 18.688 4.928 18.688 11.84C762.496 739.904 750.912 746.432 743.808 746.432zM784.64 740.288c-6.272 0-18.112-3.584-18.112-9.28s11.904-11.584 18.112-11.584c6.336 0 16.512 4.16 16.512 9.856C801.088 735.04 790.912 740.288 784.64 740.288z" p-id="23239"></path><path d="M423.872 833.984c-5.312-2.24-11.328-4.544-17.6-7.872-6.464-2.816-13.12-6.528-20.032-10.56-6.976-4.032-14.144-8.576-21.312-13.632-7.04-4.992-14.464-10.368-21.312-16.384-7.104-5.824-14.208-12.096-20.864-18.56-6.72-6.464-12.928-13.248-19.328-19.968-6.208-6.784-12.096-13.824-17.536-20.544-5.76-6.784-10.816-13.696-15.744-19.968-4.864-6.592-9.344-12.736-13.376-18.624-16.32-23.104-26.112-39.488-26.112-39.488s5.568 18.432 19.392 43.84c3.456 6.272 7.488 12.928 11.904 20.032 4.48 6.976 9.472 14.08 14.912 21.376 5.312 7.296 11.392 14.336 17.472 21.568 6.4 7.04 13.248 13.952 20.16 20.544 7.04 6.592 14.208 13.12 21.888 18.688 7.488 5.952 15.296 11.264 22.976 16.128 15.296 9.472 30.784 16.832 44.288 21.504 6.72 2.752 13.44 4.224 18.816 5.888 5.888 1.344 10.816 2.368 14.912 3.2 8.256 1.152 12.992 1.792 12.992 1.792s-4.608-1.408-12.416-3.968C433.984 837.632 429.184 835.84 423.872 833.984z" p-id="23240"></path><path d="M875.264 718.976c-4.16-56.32-6.912-112.768-12.864-168.896-5.504-50.88-15.808-100.608-45.696-144.576-18.112-26.624-38.336-53.632-47.552-83.712-20.608-67.328-57.28-99.008-127.744-96.128-80.192 3.264-160.128 9.344-240.192 12.928-8.832 0.384-17.792-7.296-26.624-11.136 68.096-18.752 90.688-37.248 89.408-77.568-0.064 0-0.256 0-0.384 0-20.928 29.568-44.736 52.8-86.912 39.168 0.192-28.736 15.552-41.408 42.496-41.536 14.784-0.064 29.568 1.408 44.416 2.368 0.128-0.256 0.32-0.384 0.384-0.448 0 0.064 0 0.32 0 0.448 0.32 0.064 0.448 0.064 0.768 0.064-43.584-32.96-48.128-31.936-108.736 24.256-12.608-7.168-25.216-15.936-39.04-21.504-24.256-9.728-66.368 6.72-65.472 30.016 0.768 15.488 24.896 31.872 41.344 44.096 6.976 5.184 21.44-0.576 31.744 1.536 10.944 2.368 21.376 8.128 31.936 12.416-7.296 7.552-13.376 18.048-22.336 22.528-139.008 67.712-205.888 218.24-180.352 373.76 22.72 139.456 187.968 252.288 315.008 258.176 132.8 6.144 251.2-27.968 362.816-95.552C862.72 780.928 877.952 755.264 875.264 718.976zM679.616 249.344c-0.064 0.512-0.064 0.832-0.128 1.344-18.368 7.616-31.296 25.728-31.296 46.848 0 28.096 22.848 50.752 50.944 50.752 17.728 0 33.28-9.024 42.368-22.592 3.264 19.328 0.32 37.376-23.616 36.736-42.88-0.896-79.168 9.984-114.752 50.752-13.888-49.6-64.064-78.528-33.92-131.456C586.624 250.816 627.584 238.656 679.616 249.344zM434.112 481.856c13.696-9.792 22.656-25.728 22.656-43.776 0-29.76-24.192-53.952-53.952-53.952-23.424 0-43.392 14.976-50.816 35.968-19.84-69.76 37.632-126.528 109.312-112.064 48 9.664 81.792 38.784 103.552 81.664 13.184 25.856-0.32 62.656-30.016 81.024-30.656 18.944-63.808 25.152-101.952 15.296C433.344 484.608 433.6 483.2 434.112 481.856zM269.44 183.808c22.144-19.072 47.104-15.424 87.104 13.568C325.376 219.136 291.776 213.12 269.44 183.808zM826.624 770.176c-33.088 33.664-72 61.76-124.8 42.496-10.24-3.712-20.544-7.232-30.656-11.008-61.888-22.912-77.568-48.512-62.08-112.256 11.136-45.376 11.264-86.272-14.144-128.32-11.072-18.56-7.296-45.888-10.24-68.736-19.904 14.016-25.152 56.512-7.104 88.192 18.752 32.576 20.224 66.048 9.728 100.608-22.016 73.92 9.344 128.768 84.672 146.944 10.048 2.304 20.224 4.864 33.664 8.128-187.456 75.904-330.304 50.176-459.712-77.824-54.72-54.144-65.856-128.64-65.024-203.328 1.28-90.496 31.552-169.024 105.472-225.152 21.248-16.256 48.064-25.344 73.088-36.224 57.408-25.152 113.664-54.4 179.776-45.824 6.144 0.832 12.224 1.856 23.808 3.52-13.248 22.656-23.36 40.384-34.432 59.584-9.536-3.712-17.92-8.64-27.136-10.432-26.432-5.248-53.376-14.4-79.36-12.544-44.096 2.88-79.936 26.368-95.296 68.672-15.616 42.56 2.88 78.848 34.496 108.416 48.128 44.992 106.496 52.48 163.904 29.632 27.52-10.88 46.336-43.264 69.504-66.56 0.192 0.384 3.136 6.144 10.944 20.48 4.864-9.472 6.848-16.512 11.2-21.056 40.256-42.752 118.208-51.712 165.568-17.216 10.304 7.488 18.88 22.08 21.504 34.688 4.672 24.384 6.464 49.536 6.4 74.432-0.128 49.088 0.128 96.704 23.36 143.04C850.88 696.96 857.024 738.944 826.624 770.176z" p-id="23241"></path><path d="M557.952 224.128c1.664 0 3.776-0.512 5.44-1.664 0.384-0.256 47.68-31.104 80.128-12.608 4.608 2.624 10.624 1.088 13.312-3.712 2.624-4.736 1.088-10.752-3.648-13.312-42.944-24.576-98.432 11.84-100.736 13.44-4.48 2.944-5.696 9.088-2.624 13.568C551.552 222.656 554.688 224.128 557.952 224.128z" p-id="23242"></path></svg>