<?xml version="1.0" standalone="no"?><!DOCTYPE svg PUBLIC "-//W3C//DTD SVG 1.1//EN" "http://www.w3.org/Graphics/SVG/1.1/DTD/svg11.dtd"><svg t="1492758568323" class="icon" style="" viewBox="0 0 1024 1024" version="1.1" xmlns="http://www.w3.org/2000/svg" p-id="11324" xmlns:xlink="http://www.w3.org/1999/xlink" width="200" height="200"><defs><style type="text/css"></style></defs><path d="M517.12 174.08c87.04 0 168.96 30.72 235.52 76.8C814.08 296.96 865.28 358.4 896 430.08c30.72 5.12 61.44 20.48 81.92 46.08 30.72 30.72 46.08 66.56 46.08 112.64s-15.36 81.92-46.08 112.64c-20.48 20.48-51.2 40.96-81.92 46.08-30.72 71.68-81.92 133.12-143.36 179.2-66.56 46.08-148.48 76.8-240.64 76.8-87.04 0-168.96-30.72-240.64-76.8C209.92 880.64 158.72 819.2 128 752.64c-35.84-5.12-61.44-20.48-87.04-46.08C15.36 670.72 0 629.76 0 583.68s15.36-81.92 46.08-112.64c20.48-20.48 51.2-40.96 87.04-46.08 5.12-5.12 5.12-15.36 10.24-20.48L76.8 317.44c-10.24-10.24-10.24-25.6 0-35.84 5.12 0 5.12-5.12 10.24-5.12l117.76-15.36c0-10.24 5.12-20.48 5.12-30.72 0-5.12 5.12-15.36 10.24-20.48-10.24-5.12-25.6-5.12-35.84-5.12-20.48 0-40.96 5.12-61.44 15.36-10.24 5.12-25.6 0-30.72-10.24-5.12-10.24 0-25.6 10.24-30.72 20.48-10.24 51.2-20.48 76.8-20.48h10.24c-15.36-10.24-30.72-20.48-51.2-20.48-10.24 0-20.48-15.36-20.48-25.6 0-15.36 15.36-20.48 25.6-20.48 25.6 5.12 51.2 15.36 71.68 30.72 10.24 5.12 20.48 15.36 30.72 25.6v-30.72c0-25.6 10.24-51.2 20.48-76.8 5.12-10.24 20.48-15.36 30.72-10.24 15.36 5.12 20.48 20.48 15.36 30.72-10.24 20.48-15.36 40.96-15.36 61.44v40.96h40.96l51.2-107.52c5.12-10.24 20.48-15.36 30.72-10.24 5.12 0 5.12 5.12 10.24 5.12l87.04 122.88z m-317.44 307.2c-10.24 10.24-20.48 20.48-35.84 20.48h-5.12c-20.48 0-40.96 10.24-56.32 25.6-15.36 15.36-25.6 35.84-25.6 56.32 0 20.48 10.24 46.08 25.6 56.32 15.36 15.36 35.84 25.6 56.32 25.6 15.36 0 35.84 10.24 40.96 25.6 25.6 66.56 66.56 122.88 122.88 163.84 56.32 40.96 122.88 61.44 194.56 61.44S655.36 896 711.68 855.04c56.32-40.96 97.28-97.28 122.88-163.84 5.12-15.36 20.48-25.6 35.84-25.6 20.48 0 40.96-10.24 56.32-25.6 15.36-15.36 25.6-35.84 25.6-56.32 0-20.48-10.24-40.96-25.6-56.32-20.48-15.36-35.84-25.6-56.32-25.6-15.36 0-30.72-10.24-40.96-25.6-20.48-66.56-66.56-122.88-122.88-163.84-51.2-35.84-107.52-56.32-168.96-61.44h-5.12l-112.64 20.48c-5.12 10.24-5.12 20.48-10.24 35.84-5.12 15.36-15.36 30.72-35.84 40.96-15.36 15.36-30.72 20.48-51.2 20.48h-35.84l-51.2 107.52c-5.12 10.24-15.36 15.36-30.72 10.24l-5.12-5.12zM256 245.76c-5.12 5.12-5.12 20.48 0 30.72 0 15.36-5.12 25.6-20.48 25.6l-97.28 15.36 76.8 102.4L256 327.68c5.12-10.24 20.48-15.36 30.72-10.24 40.96 20.48 92.16-15.36 81.92-61.44 0-15.36 5.12-25.6 20.48-25.6l97.28-15.36-76.8-102.4-40.96 87.04c-5.12 15.36-20.48 20.48-30.72 10.24-30.72-10.24-66.56 0-81.92 35.84z m353.28 486.4c10.24-5.12 25.6 0 30.72 15.36 5.12 10.24 0 25.6-15.36 30.72-35.84 15.36-76.8 25.6-117.76 25.6-40.96 0-76.8-10.24-117.76-25.6-10.24-5.12-15.36-20.48-15.36-30.72 5.12-10.24 20.48-15.36 30.72-15.36 30.72 15.36 66.56 20.48 97.28 20.48 46.08 0 76.8-5.12 107.52-20.48zM384 542.72c20.48 0 40.96 20.48 40.96 40.96S409.6 624.64 384 624.64c-20.48 0-40.96-15.36-40.96-40.96 0-20.48 15.36-40.96 40.96-40.96z m256 0c20.48 0 40.96 20.48 40.96 40.96S665.6 624.64 640 624.64c-20.48 0-40.96-15.36-40.96-40.96 5.12-20.48 20.48-40.96 40.96-40.96z" p-id="11325" fill="#2c2c2c"></path></svg>